<?xml version="1.0" encoding="UTF-8"?>
<svg version="1.1" xmlns="http://www.w3.org/2000/svg" width="1200" height="1200">
<path d="M0 0 C13.65101179 0.24184863 25.80625441 4.77844546 35.39550781 14.47338867 C49.96715743 30.42252268 52.08161177 52.35434181 54.04956055 72.85839844 C54.24534715 75.25947027 54.24534715 75.25947027 55.375 77.25 C55.931875 76.35539062 56.48875 75.46078125 57.0625 74.5390625 C70.59397977 53.00409812 86.21360527 34.93401507 111.71484375 28.67578125 C120.41682653 27.28295288 129.57156868 27.27210217 137.875 30.3125 C142.82130717 32.08643525 146.91017277 32.36296934 152.078125 31.88671875 C153.59087487 31.77357909 155.10391476 31.66426633 156.6171875 31.55834961 C157.39900391 31.50355438 158.18082031 31.44875916 158.98632812 31.39230347 C179.52413779 30.16877773 201.23132173 29.78082379 221.375 34.25 C222.27992188 34.44335938 223.18484375 34.63671875 224.1171875 34.8359375 C247.74081153 40.02161107 270.97251788 49.22006929 289.375 65.25 C290.62216797 66.31541016 290.62216797 66.31541016 291.89453125 67.40234375 C313.8176377 86.56401436 327.46300869 111.93252143 329.58642578 141.16015625 C330.22061585 155.10779161 328.92121631 168.54893127 326.375 182.25 C327.365 181.92 328.355 181.59 329.375 181.25 C337.04571255 180.6098995 344.10779327 180.32969296 350.375 185.25 C356.55200691 191.01030406 359.3366984 196.01883649 359.8125 204.5 C359.65223167 211.4386759 357.36062313 216.88308042 352.75390625 222.078125 C347.75577862 226.67855215 342.00322093 230.44800927 336.45703125 234.35546875 C331.68333648 237.72674907 326.96309479 241.16969017 322.25 244.625 C321.43233154 245.21998291 320.61466309 245.81496582 319.7722168 246.42797852 C318.25940857 247.53905299 316.75687033 248.66431211 315.26733398 249.80639648 C313.7845926 250.93753437 312.25709491 252.01004414 310.71484375 253.05859375 C308.73292023 256.30016546 309.59368515 258.66299777 310.39648438 262.27148438 C310.61626953 263.15126953 310.83605469 264.03105469 311.0625 264.9375 C311.46602991 266.6696943 311.86579814 268.4027694 312.26171875 270.13671875 C312.44951904 270.90201904 312.63731934 271.66731934 312.83081055 272.45581055 C314.20369549 279.50501116 314.53987277 286.54067525 314.578125 293.70703125 C314.58513931 294.59527588 314.59215363 295.48352051 314.59938049 296.39868164 C314.6169073 299.28667279 314.62324355 302.17445743 314.625 305.0625 C314.62601212 306.55588394 314.62601212 306.55588394 314.62704468 308.07943726 C314.5599139 370.86679203 302.68553214 433.29208347 278.375 491.25 C277.99907715 492.15363281 277.6231543 493.05726563 277.23583984 493.98828125 C263.60877725 526.43900918 245.07437448 557.69241572 221.9375 584.28515625 C219.43308153 587.18279897 217.02329263 590.13928772 214.625 593.125 C211.60137206 596.84266354 208.47136121 600.27845051 205.0234375 603.6015625 C203.36037988 605.26462012 201.8779804 607.00434591 200.375 608.8125 C191.55891321 619.01851038 180.955793 627.94744133 170.375 636.25 C169.44171875 637.00152344 168.5084375 637.75304687 167.546875 638.52734375 C152.47269549 650.45140626 136.17576854 660.933275 119.375 670.25 C118.53839844 670.71615723 117.70179688 671.18231445 116.83984375 671.66259766 C77.34395101 693.4730115 34.14936395 706.55034837 -10.25 713.625 C-11.00463531 713.74660492 -11.75927063 713.86820984 -12.53677368 713.99349976 C-36.41089622 717.78945227 -60.18379925 718.65753342 -84.3125 718.625 C-85.04961842 718.6249081 -85.78673683 718.62481621 -86.54619217 718.62472153 C-109.46541784 718.62103281 -131.96458266 717.96901866 -154.625 714.25 C-155.86975098 714.05744629 -157.11450195 713.86489258 -158.39697266 713.66650391 C-190.62086189 708.64083675 -222.69121543 700.31767919 -252.625 687.25 C-253.61967285 686.81703613 -254.6143457 686.38407227 -255.63916016 685.93798828 C-294.54188726 668.84553761 -332.35063842 645.77682458 -361.953125 614.89453125 C-363.54109506 613.16345439 -363.54109506 613.16345439 -365.625 612.25 C-365.625 611.59 -365.625 610.93 -365.625 610.25 C-366.285 610.25 -366.945 610.25 -367.625 610.25 C-369.10546875 608.74609375 -369.10546875 608.74609375 -370.8125 606.6875 C-373.73566462 603.24169056 -376.78794132 600.04528558 -380.02734375 596.8984375 C-381.625 595.25 -381.625 595.25 -383.8125 592.25 C-386.86923926 588.46641395 -391.0981393 586.57047817 -395.2890625 584.2421875 C-401.12230136 580.75863736 -406.34449648 576.51554959 -411.625 572.25 C-413.16607422 571.01443359 -413.16607422 571.01443359 -414.73828125 569.75390625 C-433.60389954 553.39008849 -445.38570604 526.85315178 -447.625 502.25 C-447.63466797 500.49042969 -447.63466797 500.49042969 -447.64453125 498.6953125 C-447.75349023 489.00786899 -450.11933414 481.64152927 -453.83544922 472.71850586 C-462.49149732 451.75310304 -468.08013881 429.43213545 -472.625 407.25 C-472.95709473 405.63254883 -472.95709473 405.63254883 -473.29589844 403.98242188 C-476.19289385 389.56125528 -478.25286962 375.1105515 -479.875 360.5 C-479.95808411 359.75453918 -480.04116821 359.00907837 -480.12677002 358.24102783 C-481.97423248 341.4495024 -482.83128132 324.75082561 -482.86523438 307.8605957 C-482.87495257 304.95169597 -482.90610988 302.04350138 -482.9375 299.13476562 C-483.02530202 283.61171308 -481.48117217 268.55843407 -477.3125 253.5625 C-476.99394043 252.39364258 -476.99394043 252.39364258 -476.66894531 251.20117188 C-466.80890371 216.02558077 -447.03055195 185.25010132 -421.625 159.25 C-421.01446777 158.62432129 -420.40393555 157.99864258 -419.77490234 157.35400391 C-417.81516876 155.3540455 -415.84757181 153.36229432 -413.875 151.375 C-412.97213257 150.46488159 -412.97213257 150.46488159 -412.05102539 149.53637695 C-386.4788134 124.0620758 -354.62100353 105.42639864 -322.625 89.25 C-321.2323291 88.54157959 -321.2323291 88.54157959 -319.81152344 87.81884766 C-258.96551872 57.07254028 -190.29533213 42.66183741 -122.625 38.25 C-121.85214661 38.1980246 -121.07929321 38.14604919 -120.28302002 38.09249878 C-110.24322042 37.44076737 -100.32139193 37.1938058 -90.265625 37.57421875 C-88.36981625 37.63296023 -86.47398258 37.69090308 -84.578125 37.74804688 C-81.69864418 37.83487658 -78.82563217 37.94024769 -75.94921875 38.1003418 C-65.55257414 39.09964887 -65.55257414 39.09964887 -55.91879272 36.12832642 C-52.696136 32.99309948 -50.69556983 29.19099951 -48.625 25.25 C-38.60201747 12.43320711 -23.51146052 2.8859358 -7.375 0.5 C-4.91648075 0.33609872 -2.45813776 0.16952674 0 0 Z M-33.43725586 29.87133789 C-76.41864667 72.95353947 -89.340619 149.01608234 -99.0625 206.875 C-99.19450806 207.65706818 -99.32651611 208.43913635 -99.46252441 209.24490356 C-99.83455196 211.46692422 -100.19842137 213.69009243 -100.55859375 215.9140625 C-100.76540771 217.18717285 -100.97222168 218.4602832 -101.18530273 219.77197266 C-101.59079592 222.97944402 -101.70965152 226.02207951 -101.625 229.25 C-100.29662109 229.79914063 -100.29662109 229.79914063 -98.94140625 230.359375 C-88.1295712 235.01225147 -79.04181411 241.25400815 -69.625 248.25 C-68.08148684 249.38254376 -66.53720402 250.51403924 -64.9921875 251.64453125 C-61.00072386 254.57033889 -57.02159949 257.51246626 -53.04541016 260.45898438 C-50.62075377 262.25314205 -48.1920289 264.04163471 -45.76171875 265.828125 C-37.52861048 271.88046442 -29.32061494 277.96312041 -21.15551758 284.10693359 C-15.68886938 288.21549968 -10.17385857 292.25294086 -4.625 296.25 C-2.49899482 293.06099223 -1.57029973 290.35505707 -0.41015625 286.70703125 C-0.19881546 286.04391937 0.01252533 285.3808075 0.23027039 284.69760132 C0.93104358 282.48794866 1.6227807 280.27562671 2.3125 278.0625 C2.55321228 277.29314117 2.79392456 276.52378235 3.04193115 275.73110962 C18.98441361 224.63957356 33.35566855 171.67843051 38.375 118.25 C38.4678125 117.3744043 38.560625 116.49880859 38.65625 115.59667969 C39.51219656 106.8201705 39.59546843 98.05432133 39.61523438 89.24365234 C39.62490533 86.65038533 39.65601505 84.05792491 39.6875 81.46484375 C39.81185954 61.85376271 38.0069775 39.57539085 24.375 24.25 C6.4794219 7.62511384 -17.28366121 14.42773356 -33.43725586 29.87133789 Z M83.4453125 62.59375 C70.94580044 77.89031158 62.03338411 95.71059187 55.375 114.25 C54.94445312 115.4359375 54.51390625 116.621875 54.0703125 117.84375 C50.97010732 127.02724138 49.47368042 136.36886074 48.0625 145.9375 C41.48772091 190.47577101 29.577945 233.84108072 16.57421875 276.875 C16.30210571 277.77573746 16.02999268 278.67647491 15.74963379 279.60450745 C14.50124996 283.69814012 13.21616108 287.76975167 11.81103516 291.8125 C11.57101273 292.50520996 11.3309903 293.19791992 11.08369446 293.91162109 C10.44579473 295.72895384 9.79159115 297.5405416 9.13598633 299.3515625 C8.36854681 302.27457884 8.1081722 303.53972473 9.375 306.25 C10.80413995 307.79396438 10.80413995 307.79396438 12.6640625 309.09765625 C13.35169678 309.61561768 14.03933105 310.1335791 14.74780273 310.66723633 C15.49102783 311.21017334 16.23425293 311.75311035 17 312.3125 C17.75676025 312.87670654 18.51352051 313.44091309 19.29321289 314.0222168 C20.8656698 315.19201727 22.44165561 316.35708792 24.02099609 317.51757812 C26.28081655 319.18068598 28.52676934 320.8608631 30.76953125 322.546875 C32.11663436 323.55282449 33.4642657 324.55806711 34.8125 325.5625 C35.44430176 326.03631104 36.07610352 326.51012207 36.72705078 326.99829102 C39.73321616 329.45059442 39.73321616 329.45059442 43.375 330.25 C44.67193479 327.65613043 44.84486676 325.08123874 45.22338867 322.23339844 C48.07705544 301.33527149 55.26114583 282.20315964 69.375 266.25 C68.40202045 263.79583283 67.41843553 261.35095367 66.375 258.92578125 C51.89405882 224.70324449 62.40682742 179.32578622 75.375 146.25 C81.38001549 131.97687403 88.98755773 117.44251366 102.625 109.3125 C109.13563914 107.46781891 115.60284519 106.93952682 121.8125 109.875 C134.19481717 121.35129396 136.77013061 137.35595486 137.53515625 153.6640625 C138.2355287 177.53060055 134.3773649 202.69025601 126.07421875 225.10546875 C125.22000671 227.34943012 125.22000671 227.34943012 125.375 230.25 C134.615 229.26 143.855 228.27 153.375 227.25 C172.5031505 140.96379288 172.5031505 140.96379288 153.09765625 57.6875 C147.41781613 49.65071942 139.78475679 44.81973636 130.3125 42.5 C111.80586858 40.92496754 95.46057585 48.4788094 83.4453125 62.59375 Z M162.375 46.25 C162.90609375 47.27738281 163.4371875 48.30476563 163.984375 49.36328125 C164.69824955 50.76285109 165.41177208 52.16260052 166.125 53.5625 C166.64707031 54.56893555 166.64707031 54.56893555 167.1796875 55.59570312 C170.07873641 61.3132718 172.28362147 67.19471325 174.375 73.25 C175.36959229 73.27187378 175.36959229 73.27187378 176.38427734 73.29418945 C199.26715504 73.85351355 222.63088503 75.5495906 243.375 86.25 C244.24253906 86.67925781 245.11007812 87.10851562 246.00390625 87.55078125 C254.83949651 92.10989667 262.61229187 97.93896418 269.375 105.25 C269.90480469 105.77464844 270.43460938 106.29929687 270.98046875 106.83984375 C283.35262671 119.75823385 286.86873329 136.25259421 286.8762207 153.57397461 C286.60424466 164.44651863 284.56666594 176.0230112 280.1484375 186.02734375 C279.12032142 188.98187936 279.36464236 190.27963526 280.375 193.25 C281.76933347 195.9358959 283.33437792 198.49701367 284.9375 201.0625 C285.36224609 201.75537109 285.78699219 202.44824219 286.22460938 203.16210938 C287.26809456 204.86216951 288.32065296 206.55665476 289.375 208.25 C300.46809121 202.94729582 300.46809121 202.94729582 308.23046875 193.84765625 C309.54305172 189.99875911 310.54358877 186.22391309 311.375 182.25 C311.67967309 180.91015297 311.98436053 179.57030921 312.2890625 178.23046875 C318.50412525 149.67761563 315.61453629 122.55642955 299.671875 97.58203125 C279.50230418 68.21750902 247.26884033 53.43647273 213.19140625 47.01171875 C202.81091189 45.26391736 192.50915991 45.09412098 182 45.125 C180.64713449 45.12142872 179.29426982 45.11752425 177.94140625 45.11328125 C176.65363281 45.11457031 175.36585938 45.11585938 174.0390625 45.1171875 C172.87842285 45.11831543 171.7177832 45.11944336 170.52197266 45.12060547 C167.68376498 45.23730447 165.13356227 45.59898706 162.375 46.25 Z M-330.41699219 109.04882812 C-332.48358773 110.17307073 -334.55762903 111.282347 -336.6328125 112.390625 C-357.82318507 123.85863823 -377.01384736 138.14547921 -395.12988281 153.95019531 C-396.37838123 155.03559792 -397.63718109 156.10913652 -398.8984375 157.1796875 C-407.45402369 164.47812633 -415.47618384 172.56929466 -422.625 181.25 C-423.85476563 182.73886719 -423.85476563 182.73886719 -425.109375 184.2578125 C-455.76470124 221.98659793 -472.82394485 267.31146892 -468.12890625 316.2421875 C-463.80449079 353.52275483 -447.71783052 387.66674945 -423.625 416.25 C-423.14321289 416.82588867 -422.66142578 417.40177734 -422.16503906 417.99511719 C-420.55348269 419.91852403 -418.9345522 421.83543861 -417.3125 423.75 C-416.79631104 424.36246582 -416.28012207 424.97493164 -415.74829102 425.60595703 C-413.49502181 428.24001356 -411.52669791 430.31553473 -408.625 432.25 C-409.61961307 427.65912393 -410.6468187 423.09324916 -411.84375 418.55078125 C-417.69377923 396.05136166 -419.58977637 373.16051186 -414.9375 350.25 C-413.69022002 344.0472523 -413.70203488 338.93490901 -414.94140625 332.72265625 C-422.77593794 292.92323528 -415.94540928 249.39624967 -393.625 215.25 C-390.20746576 210.37235795 -386.48948033 205.77831744 -382.625 201.25 C-382.03203125 200.55390625 -381.4390625 199.8578125 -380.828125 199.140625 C-368.01090415 185.30817873 -348.59728358 175.95469911 -329.8359375 174.90234375 C-311.58784272 174.34495535 -294.04696282 179.03385427 -280.10546875 191.31640625 C-279.61691406 191.62449219 -279.12835938 191.93257812 -278.625 192.25 C-277.635 191.92 -276.645 191.59 -275.625 191.25 C-274.64540764 188.79033819 -273.83381989 186.40008126 -273.0625 183.875 C-268.35107214 169.58784726 -261.22751123 155.87215987 -251.625 144.25 C-250.87863281 143.34121094 -250.13226563 142.43242188 -249.36328125 141.49609375 C-236.38346715 126.46793539 -218.1970078 114.2447602 -197.91796875 112.3828125 C-197.16128906 112.33898437 -196.40460938 112.29515625 -195.625 112.25 C-194.63113281 112.18554688 -193.63726562 112.12109375 -192.61328125 112.0546875 C-172.49611229 111.36652893 -153.40640571 118.58912021 -138.625 132.25 C-137.17867187 133.55904297 -137.17867187 133.55904297 -135.703125 134.89453125 C-123.42542511 146.3578939 -115.71448906 160.179885 -108.625 175.25 C-107.965 175.25 -107.305 175.25 -106.625 175.25 C-106.4798999 174.56824707 -106.3347998 173.88649414 -106.18530273 173.18408203 C-101.12901333 149.5749333 -95.17600357 126.47412359 -87.5625 103.5625 C-87.18819855 102.43245041 -87.18819855 102.43245041 -86.80633545 101.27957153 C-82.40787172 88.05253803 -77.79383241 74.87461493 -71.3125 62.5 C-68.69971312 57.49457288 -68.69971312 57.49457288 -66.625 52.25 C-148.58726189 38.76936482 -254.53717337 68.47891697 -330.41699219 109.04882812 Z M177.375 87.25 C176.89595132 92.80132886 176.78255346 98.1804589 179.375 103.25 C184.20792312 107.96944289 190.72101252 110.71355213 196.66650391 113.77587891 C200.87422807 116.06596711 204.70983548 118.78765094 208.5625 121.625 C209.2942041 122.16133057 210.0259082 122.69766113 210.77978516 123.25024414 C230.43516697 137.84946041 251.91767574 154.61204035 266.140625 174.7734375 C266.54796875 175.26070312 266.9553125 175.74796875 267.375 176.25 C268.035 176.25 268.695 176.25 269.375 176.25 C269.85973678 174.56409158 270.33748926 172.87617455 270.8125 171.1875 C271.07933594 170.24777344 271.34617187 169.30804687 271.62109375 168.33984375 C275.29919471 153.26534706 274.3357302 137.46080789 266.94140625 123.6875 C254.39044285 104.15682379 233.00206753 94.05394501 211.06640625 89.28125 C199.82916931 87.04944264 188.7960894 86.92811126 177.375 87.25 Z M180.375 120.25 C180.31030518 121.32854248 180.24561035 122.40708496 180.17895508 123.51831055 C178.02270321 158.83459182 173.74180283 193.4516352 167.375 228.25 C171.56842593 229.71547865 175.73801883 230.81007267 180.0625 231.8125 C195.46972588 235.74253794 208.91386508 243.56771564 221.375 253.25 C222.70701985 254.25174892 224.03973865 255.25257586 225.375 256.25 C234.78879673 249.58509335 244.10615185 242.79715555 253.37890625 235.9375 C256.83488981 233.38167641 260.30217283 230.84216946 263.77734375 228.3125 C264.65173096 227.6740918 265.52611816 227.03568359 266.42700195 226.37792969 C268.11461024 225.14621103 269.80448011 223.91758378 271.49682617 222.69238281 C272.25326416 222.13905273 273.00970215 221.58572266 273.7890625 221.015625 C274.4588916 220.52868164 275.1287207 220.04173828 275.81884766 219.54003906 C277.51124899 218.31347652 277.51124899 218.31347652 278.375 216.25 C277.15666572 213.37962858 275.38960203 210.77245089 273.75 208.125 C273.25580566 207.32255859 272.76161133 206.52011719 272.25244141 205.69335938 C265.12863193 194.39306377 256.44842648 184.30157333 247.421875 174.484375 C245.34115109 172.21305043 243.32861043 169.89118569 241.3125 167.5625 C238.2750773 164.14316168 235.0978529 161.11469858 231.6015625 158.171875 C229.97446085 156.76742937 228.3912622 155.31166549 226.8359375 153.828125 C214.10703906 141.69534577 199.40221109 132.10155811 184.77734375 122.41796875 C184.14304443 121.99797607 183.50874512 121.5779834 182.85522461 121.14526367 C181.52070547 120.16374622 181.52070547 120.16374622 180.375 120.25 Z M-232.625 143.25 C-232.625 143.91 -232.625 144.57 -232.625 145.25 C-233.46417969 145.559375 -233.46417969 145.559375 -234.3203125 145.875 C-237.4613073 147.74894944 -239.3518939 150.36140922 -241.5 153.25 C-242.16189331 154.13002686 -242.16189331 154.13002686 -242.8371582 155.02783203 C-251.71806345 166.98960167 -258.30622206 180.1265791 -262.625 194.375 C-262.95479858 195.44053101 -262.95479858 195.44053101 -263.29125977 196.52758789 C-264.40788502 200.43507577 -265.02439636 203.3814764 -263.625 207.25 C-262.3237696 209.2061308 -262.3237696 209.2061308 -260.625 211.0625 C-252.01241244 221.72654579 -246.09912388 234.36465501 -241.625 247.25 C-241.40360352 247.87890137 -241.18220703 248.50780273 -240.95410156 249.15576172 C-236.4738966 262.18519775 -234.55826301 275.64828952 -232.625 289.25 C-228.6919445 287.75311524 -225.81859313 286.04496603 -222.5 283.4375 C-217.29680716 279.42431968 -211.94060539 275.68361701 -206.5 272 C-200.21985857 267.73958383 -194.01050998 263.40364314 -187.875 258.9375 C-185.62046943 257.30645075 -183.36484861 255.67692045 -181.10888672 254.04785156 C-179.35005914 252.77480199 -177.59416005 251.49770193 -175.84033203 250.21777344 C-153.56001596 234.00783177 -153.56001596 234.00783177 -140.625 230.25 C-140.00866699 230.06872559 -139.39233398 229.88745117 -138.75732422 229.70068359 C-133.71369917 228.31384218 -128.83925049 227.8418839 -123.625 227.625 C-122.85027344 227.58632813 -122.07554687 227.54765625 -121.27734375 227.5078125 C-119.39356585 227.41478643 -117.50931744 227.33136825 -115.625 227.25 C-115.28152513 225.29341993 -114.95084461 223.33459329 -114.625 221.375 C-114.439375 220.28445313 -114.25375 219.19390625 -114.0625 218.0703125 C-113.10718969 209.7284064 -113.58100966 202.69344563 -116.125 194.6875 C-116.52549561 193.39875977 -116.52549561 193.39875977 -116.93408203 192.08398438 C-124.6594975 168.13563761 -139.05255932 144.30247075 -161.96948242 132.30786133 C-186.70301721 119.78874139 -212.29669417 125.22845228 -232.625 143.25 Z M-375.81640625 213.984375 C-393.55035548 236.30715543 -406.70018665 268.41397892 -404.01025391 297.38916016 C-403.41291532 300.27440395 -402.19535195 301.60067346 -399.9375 303.4375 C-397.41925 304.95891189 -397.41925 304.95891189 -394.625 306.25 C-393.65820312 306.7759375 -392.69140625 307.301875 -391.6953125 307.84375 C-354.59340149 326.71853765 -305.10552707 319.83184715 -267.00610352 307.59667969 C-259.9079866 305.25516251 -253.25186929 302.73101065 -246.625 299.25 C-244.64184514 270.0535535 -256.05308322 237.61275399 -274.625 215.25 C-275.34558594 214.36570312 -276.06617188 213.48140625 -276.80859375 212.5703125 C-288.14441404 199.27446625 -303.7743246 189.79292731 -321.33203125 187.96875 C-342.61991656 187.22071303 -362.43026989 197.89318327 -375.81640625 213.984375 Z M-168.29345703 261.57470703 C-172.37515051 264.5075427 -176.50254718 267.37489199 -180.625 270.25 C-188.95152118 276.07123149 -197.25718105 281.92137505 -205.55273438 287.78662109 C-207.6427979 289.2625684 -209.73513089 290.73524322 -211.828125 292.20703125 C-219.06583859 297.29967981 -226.27337012 302.42926164 -233.4375 307.625 C-240.71934639 312.90499426 -248.06758482 318.08395679 -255.44458008 323.22998047 C-260.73624974 326.92256163 -266.01180213 330.63479022 -271.23901367 334.41821289 C-274.70006571 336.91303551 -278.20820548 339.32200667 -281.75390625 341.6953125 C-282.65173828 342.30375 -283.54957031 342.9121875 -284.47460938 343.5390625 C-286.23680186 344.73161897 -288.00727009 345.91206951 -289.78710938 347.078125 C-296.09125339 351.37073296 -300.66052156 355.71127794 -302.2890625 363.375 C-302.17614343 371.68584326 -300.27346215 376.37350897 -294.625 382.375 C-292.62258853 383.50392151 -292.62258853 383.50392151 -290.40625 382.6171875 C-286.94565511 380.91605237 -284.09686729 378.67075124 -281.125 376.25 C-279.87379138 375.25509079 -278.6224872 374.26030173 -277.37109375 373.265625 C-275.01500531 371.37688487 -272.67651641 369.46901865 -270.34765625 367.546875 C-256.06242304 355.93214889 -239.31197774 348.93151582 -220.625 350.25 C-203.64214706 352.19534398 -190.68984943 359.40264 -178.24902344 370.77929688 C-175.42910582 373.33299256 -172.52111806 375.78355649 -169.625 378.25 C-168.44763971 379.26009393 -167.27055503 380.27050922 -166.09375 381.28125 C-162.78318851 384.11887414 -159.45655124 386.93707273 -156.125 389.75 C-151.6538605 393.52680422 -147.19484031 397.31727006 -142.75 401.125 C-142.17701172 401.61548828 -141.60402344 402.10597656 -141.01367188 402.61132812 C-137.86672195 405.31021399 -134.73467922 408.02493662 -131.6171875 410.7578125 C-130.95058105 411.34062988 -130.28397461 411.92344727 -129.59716797 412.52392578 C-128.32008407 413.64165086 -127.0454997 414.76224097 -125.77392578 415.88623047 C-122.21631921 418.99730013 -118.61740409 421.71823155 -114.625 424.25 C-114.32207031 423.15042969 -114.01914062 422.05085937 -113.70703125 420.91796875 C-111.30087622 412.34968568 -108.76599884 404.16629909 -104.625 396.25 C-104.30515137 395.63769531 -103.98530273 395.02539062 -103.65576172 394.39453125 C-99.04538016 385.65951608 -94.14751632 377.71780854 -87.625 370.25 C-87.07457031 369.56808594 -86.52414062 368.88617187 -85.95703125 368.18359375 C-67.94530781 346.32138312 -38.31892746 333.02485235 -10.63671875 329.51953125 C-1.67788332 328.76998725 7.39536317 329.09914024 16.375 329.25 C5.10738362 320.19493374 -6.50041533 311.61326926 -18.15332031 303.06445312 C-22.14803737 300.13194254 -26.13626088 297.19063339 -30.125 294.25 C-31.70830059 293.08328889 -33.29163396 291.91662228 -34.875 290.75 C-44.375 283.75 -44.375 283.75 -46.75048828 281.99951172 C-48.33203036 280.83425051 -49.91373582 279.66921101 -51.49560547 278.50439453 C-55.48272196 275.56803141 -59.46682267 272.62773075 -63.4453125 269.6796875 C-67.39358308 266.75511676 -71.35284154 263.84595724 -75.31835938 260.94482422 C-76.84998749 259.81944717 -78.37738791 258.68829237 -79.90039062 257.55126953 C-111.20282061 234.18360983 -137.98026579 239.65089629 -168.29345703 261.57470703 Z M82.375 271.25 C66.29823526 289.62344542 55.77324008 313.42272118 57.375 338.25 C58.72685762 342.28252983 60.94250638 343.38756016 64.625 345.3125 C91.95028555 360.64611347 110.09027262 385.7978555 119.18359375 415.421875 C120.51567794 421.13782526 120.51567794 421.13782526 124.1171875 425.32421875 C150.03518993 432.77683117 174.31602552 428.94999083 198.0625 417.0625 C219.82466857 404.80781349 235.43699476 384.07048467 242.375 360.25 C248.95748328 335.97113051 245.45953955 310.42243584 233.35058594 288.45605469 C219.93062351 265.36705101 197.93513054 250.03101548 172.375 243.25 C139.64500471 235.66888751 105.56136253 247.55801586 82.375 271.25 Z M295.375 263.25 C294.56417969 263.8790625 293.75335937 264.508125 292.91796875 265.15625 C284.32658464 271.80473398 275.6357356 278.28210833 266.72265625 284.49609375 C265.90369873 285.07319092 265.08474121 285.65028809 264.2409668 286.24487305 C262.60164551 287.39993339 260.95608997 288.5462044 259.30395508 289.68286133 C258.55138428 290.21548584 257.79881348 290.74811035 257.0234375 291.296875 C256.34458496 291.76963867 255.66573242 292.24240234 254.96630859 292.72949219 C253.06194726 294.54912434 252.67181402 295.65534279 252.375 298.25 C253.06074694 301.15117366 253.06074694 301.15117366 254.1875 304.25 C260.80440167 325.01653915 261.03871158 349.29055295 252.875 369.6875 C250.01282157 377.16664483 249.35607622 384.6308929 248.54125977 392.56030273 C247.49874009 402.26308354 245.42787386 411.514837 242.96044922 420.94140625 C242.00935711 424.69183452 241.19546233 428.46906759 240.375 432.25 C241.51302381 431.11197619 242.64953088 429.97241877 243.78125 428.828125 C244.84405935 427.77573535 245.92783236 426.74410624 247.03125 425.734375 C258.94760031 414.52492683 268.20278731 400.32838411 276.375 386.25 C276.7560791 385.60160156 277.1371582 384.95320313 277.52978516 384.28515625 C296.6358669 351.39697123 304.38266913 313.11949022 299 275.4375 C298.81099121 274.11335083 298.81099121 274.11335083 298.61816406 272.76245117 C297.99863636 268.85564147 297.61630424 266.61195636 295.375 263.25 Z M-78.15234375 379.14453125 C-89.91938351 393.54908895 -101.4454332 413.23395344 -102.625 432.25 C-102.18634143 436.37470001 -100.76990532 438.78254518 -98.375 442.125 C-90.28350378 454.39543768 -87.63854423 468.71818139 -88.625 483.25 C-89.23710413 485.79999974 -89.8830704 488.34210727 -90.5625 490.875 C-91.80753927 496.54227781 -91.69535524 499.49153166 -88.8125 504.5625 C-87.46640466 506.4939663 -86.07055707 508.39180209 -84.625 510.25 C-83.71621094 511.50876953 -83.71621094 511.50876953 -82.7890625 512.79296875 C-74.06264389 524.37296306 -63.79392686 533.48024306 -51.625 541.25 C-50.89152344 541.81074219 -50.15804687 542.37148438 -49.40234375 542.94921875 C-42.897295 547.52406036 -36.06791147 546.45540767 -28.55322266 545.58740234 C-25.18816313 545.19966579 -21.81917073 544.86209698 -18.44921875 544.51953125 C35.22714995 540.99884754 35.22714995 540.99884754 82.61328125 522.140625 C102.74656384 496.50955338 113.62690084 467.81695456 109.9453125 434.85546875 C107.07096865 414.12016442 97.95372967 395.05019873 84.375 379.25 C83.59962891 378.25806641 83.59962891 378.25806641 82.80859375 377.24609375 C66.5233012 357.04253532 40.3458944 345.75687457 15.15234375 342.71875 C-19.963499 339.0406772 -54.79844155 352.39763553 -78.15234375 379.14453125 Z M-265.625 381.25 C-266.27726562 381.76723633 -266.92953125 382.28447266 -267.6015625 382.81738281 C-270.76208105 385.33012302 -273.91109863 387.85675192 -277.0546875 390.390625 C-280.8282954 393.42490553 -284.65751532 396.38016456 -288.50292969 399.32299805 C-300.95994982 408.85793134 -313.30044741 418.54477562 -325.625 428.25 C-334.12661418 434.94477229 -342.65205273 441.6074476 -351.20043945 448.24243164 C-356.09757284 452.04813424 -360.96089018 455.88934653 -365.77734375 459.796875 C-367.33677297 461.02331828 -368.97426955 462.14951303 -370.625 463.25 C-370.625 463.91 -370.625 464.57 -370.625 465.25 C-368.96816942 466.66914493 -368.96816942 466.66914493 -366.76953125 468.0859375 C-365.93043213 468.64949951 -365.09133301 469.21306152 -364.22680664 469.79370117 C-363.30633545 470.39802979 -362.38586426 471.0023584 -361.4375 471.625 C-360.48931396 472.25059814 -359.54112793 472.87619629 -358.56420898 473.52075195 C-334.0046467 489.54950371 -307.84910149 502.41791733 -280.625 513.25 C-279.5829541 513.66604492 -278.5409082 514.08208984 -277.46728516 514.51074219 C-249.00238412 525.69100701 -218.82748607 533.58898369 -188.75 539 C-187.72672104 539.18471863 -187.72672104 539.18471863 -186.68276978 539.37316895 C-174.62366509 542.04239056 -174.62366509 542.04239056 -163.12890625 539.125 C-162.330896 538.66963867 -161.53288574 538.21427734 -160.71069336 537.74511719 C-159.87803955 537.25172852 -159.04538574 536.75833984 -158.1875 536.25 C-156.41038481 535.23169908 -154.63171729 534.21610282 -152.8515625 533.203125 C-151.97145508 532.69974609 -151.09134766 532.19636719 -150.18457031 531.67773438 C-146.54243027 529.64614005 -142.81554822 527.81575525 -139.0625 526 C-132.62007587 522.8402584 -126.50750213 519.38258133 -120.625 515.25 C-119.97144531 514.79367187 -119.31789063 514.33734375 -118.64453125 513.8671875 C-109.05207868 506.45580031 -104.14744137 494.7336733 -102.05859375 483.09375 C-100.47493738 469.35761479 -104.10331712 457.20709829 -112.18359375 446.109375 C-116.16991926 441.25313193 -120.89869003 437.43409101 -125.80078125 433.53515625 C-128.49635726 431.35408853 -131.06624376 429.08908559 -133.625 426.75 C-136.94489486 423.72717579 -140.32264112 420.82487839 -143.8125 418 C-150.25211993 412.78481485 -156.47955403 407.33668248 -162.72851562 401.89648438 C-166.27579929 398.8168138 -169.84424125 395.76185799 -173.41625977 392.7109375 C-176.37752334 390.18095839 -179.32844005 387.64052938 -182.26171875 385.078125 C-210.47375704 360.49361981 -235.84889564 357.60675804 -265.625 381.25 Z M-403.625 371.25 C-404.3351181 396.44604231 -399.73608921 417.98804771 -388.9375 440.8125 C-388.46183594 441.81885498 -387.98617187 442.82520996 -387.49609375 443.86206055 C-384.99308158 449.32117211 -384.99308158 449.32117211 -380.625 453.25 C-372.67870695 447.33671958 -364.74776044 441.40492704 -356.9375 435.3125 C-356.09324463 434.65930786 -356.09324463 434.65930786 -355.23193359 433.99291992 C-351.77054334 431.2765378 -348.67173638 428.40978783 -345.625 425.25 C-346.44742188 424.88648438 -347.26984375 424.52296875 -348.1171875 424.1484375 C-373.72043744 412.61810554 -389.3812961 395.96751189 -402.625 371.25 C-402.955 371.25 -403.285 371.25 -403.625 371.25 Z M228.8125 409.625 C226.14818297 411.89723409 226.14818297 411.89723409 226.375 414.25 C225.8284375 414.49363281 225.281875 414.73726562 224.71875 414.98828125 C221.84952184 416.53288241 219.44344093 418.43176858 216.875 420.4375 C197.7979056 434.93807773 175.85612594 442.45432591 151.875 442.4375 C150.44099854 442.4384668 150.44099854 442.4384668 148.97802734 442.43945312 C140.65280992 442.37826896 132.59259478 441.56858254 124.375 440.25 C124.3656543 440.84200195 124.35630859 441.43400391 124.34667969 442.04394531 C123.86511867 466.54690285 119.95936575 488.37770824 107.6953125 509.7734375 C106.21818542 512.07638903 106.21818542 512.07638903 106.375 514.25 C112.26079699 513.6340445 117.33799235 511.44052563 122.75 509.1875 C123.73025146 508.78192871 124.71050293 508.37635742 125.72045898 507.95849609 C133.40311631 504.73922842 140.86913525 501.2308262 148.24365234 497.36279297 C150.6190826 496.1225626 153.00635464 494.90690207 155.39453125 493.69140625 C170.74563279 485.82888784 185.5945812 477.25828219 199.62109375 467.19921875 C202.375 465.25 202.375 465.25 204.59765625 463.95703125 C219.2051029 454.98347059 227.02275545 429.84318603 230.875 414.0625 C231.4018801 411.79585653 231.89745386 409.52776943 232.375 407.25 C230.91492901 407.13670589 230.91492901 407.13670589 228.8125 409.625 Z M-423.625 438.25 C-426.61042194 445.13785493 -428.71640151 451.92129054 -430.3125 459.25 C-430.52455078 460.17039062 -430.73660156 461.09078125 -430.95507812 462.0390625 C-437.06679528 489.41647057 -433.51809418 516.78288065 -419.625 541.25 C-417.49050458 544.44927836 -415.14742098 547.35054346 -412.625 550.25 C-411.98175781 551.03632812 -411.33851563 551.82265625 -410.67578125 552.6328125 C-388.84957863 578.3724008 -354.88665865 589.98772174 -322.109375 592.9375 C-275.37640496 596.50428349 -229.83280618 582.44912832 -188.96875 560.73046875 C-188.24880859 560.34785889 -187.52886719 559.96524902 -186.78710938 559.57104492 C-184.21542546 557.9997507 -181.94419931 556.17004702 -179.625 554.25 C-185.04789191 553.0771837 -190.47381648 551.92007634 -195.90307617 550.77709961 C-197.74773173 550.38649521 -199.5915032 549.99169022 -201.43432617 549.5925293 C-204.09069388 549.01792748 -206.74992486 548.45874685 -209.41015625 547.90234375 C-210.22710464 547.72219223 -211.04405304 547.54204071 -211.88575745 547.35643005 C-218.47764788 546.00269307 -223.96251056 546.37092923 -230.27734375 548.88671875 C-231.5468689 549.37748901 -231.5468689 549.37748901 -232.84204102 549.87817383 C-233.73979248 550.22775146 -234.63754395 550.5773291 -235.5625 550.9375 C-274.82937076 565.65388185 -321.25139547 571.79973225 -360.71875 554.5 C-381.13136033 545.07618227 -394.79615826 531.24708124 -402.79296875 510.171875 C-406.90465974 495.73269723 -405.89150179 478.51424698 -402.18359375 464.078125 C-401.60977601 461.17292191 -401.66213294 459.98285801 -402.625 457.25 C-404.62162222 455.19839833 -406.60296177 453.31660304 -408.75 451.4375 C-409.93595515 450.374879 -411.12085843 449.31108283 -412.3046875 448.24609375 C-412.87670898 447.7341748 -413.44873047 447.22225586 -414.03808594 446.69482422 C-416.05184581 444.8613733 -417.9715681 442.94723472 -419.875 441 C-420.7825 440.0925 -421.69 439.185 -422.625 438.25 C-422.955 438.25 -423.285 438.25 -423.625 438.25 Z M-99.625 513.25 C-100.74361455 514.53085635 -101.85939328 515.81429706 -102.9609375 517.10986328 C-112.21066255 527.83839451 -123.97754558 533.60659893 -136.44140625 539.92626953 C-137.22902344 540.32958496 -138.01664063 540.73290039 -138.828125 541.1484375 C-139.53614258 541.50599121 -140.24416016 541.86354492 -140.97363281 542.23193359 C-142.79763978 543.15638272 -142.79763978 543.15638272 -143.625 545.25 C-127.58176944 547.02683091 -111.56380781 547.58091436 -95.4375 547.9375 C-94.40115417 547.96214325 -93.36480835 547.9867865 -92.29705811 548.01217651 C-89.3088113 548.08141587 -86.3205306 548.14202804 -83.33203125 548.19921875 C-81.97548683 548.23024689 -81.97548683 548.23024689 -80.59153748 548.26190186 C-76.45604907 548.3291227 -72.65810836 548.3218551 -68.625 547.25 C-72.11024681 543.70103753 -75.71468817 540.36570264 -79.4375 537.0625 C-87.22848289 530.01408581 -93.15678175 522.1979935 -98.625 513.25 C-98.955 513.25 -99.285 513.25 -99.625 513.25 Z M187.0625 528.5625 C161.45446803 542.845195 134.38146513 554.76342914 106.0859375 562.57421875 C104.99656891 562.87562523 104.99656891 562.87562523 103.88519287 563.18312073 C100.23259718 564.19002676 96.57635612 565.17916958 92.91210938 566.14282227 C91.56375986 566.50651669 90.21545071 566.87036077 88.8671875 567.234375 C87.06290283 567.70955566 87.06290283 567.70955566 85.22216797 568.19433594 C82.09228929 569.03781407 82.09228929 569.03781407 80.375 572.25 C79.875 575.25 79.875 575.25 80.375 578.25 C82.01004738 580.09921742 82.01004738 580.09921742 84.375 581.25 C87.04303173 581.29374622 87.04303173 581.29374622 89.8828125 580.6328125 C90.94661133 580.42172852 92.01041016 580.21064453 93.10644531 579.99316406 C98.19628165 578.83589921 103.2296388 577.55399561 108.25 576.125 C109.87663574 575.662146 109.87663574 575.662146 111.53613281 575.18994141 C136.83714021 567.84770275 161.02419426 557.33790146 184.375 545.1875 C185.22263916 544.74688232 186.07027832 544.30626465 186.94360352 543.85229492 C194.43550981 540.11854662 194.43550981 540.11854662 199.5 533.8125 C199.61286628 530.98431264 199.61286628 530.98431264 197.125 528.4375 C193.0328513 525.18238172 191.2357632 526.13777261 187.0625 528.5625 Z M130.5390625 598.4453125 C129.16026973 598.91610965 127.78144353 599.38680888 126.40258789 599.85742188 C125.68313995 600.10548584 124.96369202 600.3535498 124.22244263 600.60913086 C112.48636483 604.65346465 100.77857799 608.4959464 88.69970703 611.41064453 C87.47356689 611.71784424 87.47356689 611.71784424 86.22265625 612.03125 C85.52148682 612.19689453 84.82031738 612.36253906 84.09790039 612.53320312 C81.992694 613.22205308 81.992694 613.22205308 80.375 616.25 C80.45667489 619.82176115 80.45667489 619.82176115 81.375 623.25 C85.54102014 626.02734676 87.70597197 625.04090383 92.484375 624.140625 C104.22021844 621.45410662 115.74924405 617.86456902 127.1875 614.125 C127.89729004 613.89586914 128.60708008 613.66673828 129.33837891 613.43066406 C138.0448936 610.52907064 138.0448936 610.52907064 145.375 605.25 C145.87510524 602.29230823 145.87510524 602.29230823 145.375 599.25 C143.72126504 597.25966359 143.72126504 597.25966359 141.375 596.25 C137.14850369 596.25 134.51474359 597.06974048 130.5390625 598.4453125 Z " fill="#000000" transform="translate(661.625,369.75)"/>
<path d="M0 0 C1.75128818 0.28382946 3.50100003 0.57739529 5.25 0.875 C6.71179687 1.11863281 6.71179687 1.11863281 8.203125 1.3671875 C11 2 11 2 15 4 C14.67 8.29 14.34 12.58 14 17 C16.09956055 17.23710693 18.19912109 17.47421387 20.36230469 17.71850586 C27.29959981 18.50234412 34.23655683 19.28914312 41.17335129 20.07739925 C45.37907971 20.55522113 49.58491625 21.03204547 53.79101562 21.5065918 C57.8501965 21.96459943 61.9090725 22.42522513 65.96775055 22.8876667 C67.51618125 23.06362727 69.06471945 23.2386446 70.61336517 23.41270256 C72.78257471 23.6566712 74.9513777 23.90399208 77.12011719 24.15209961 C78.35477722 24.29199814 79.58943726 24.43189667 80.86151123 24.57603455 C83.32341481 24.90860291 85.61642553 25.32135818 88 26 C88.20496094 25.37351562 88.40992187 24.74703125 88.62109375 24.1015625 C88.89050781 23.28429687 89.15992187 22.46703125 89.4375 21.625 C89.70433594 20.81289063 89.97117187 20.00078125 90.24609375 19.1640625 C91 17 91 17 92 15 C93.56365584 15.28540514 95.12588434 15.57863498 96.6875 15.875 C97.55761719 16.03742187 98.42773438 16.19984375 99.32421875 16.3671875 C102.02667865 17.0063094 104.43643208 17.94452369 107 19 C105.43518473 29.42368879 102.59508056 39.52174311 99.875 49.6875 C99.40195217 51.46799497 98.92929276 53.24859318 98.45703125 55.02929688 C97.30916212 59.3540679 96.1560458 63.67740782 95 68 C93.24970238 67.68917128 91.49977306 67.37626821 89.75 67.0625 C88.77546875 66.88847656 87.8009375 66.71445312 86.796875 66.53515625 C84.51556532 66.09864867 82.25334527 65.56333632 80 65 C80 61.37 80 57.74 80 54 C72.81067373 52.85676182 65.62072786 51.71753404 58.43017578 50.58203125 C55.98371171 50.19511535 53.53742115 49.80710076 51.09130859 49.41796875 C47.57694728 48.85909263 44.06198263 48.30416013 40.546875 47.75 C39.4519574 47.57500977 38.35703979 47.40001953 37.22894287 47.21972656 C36.20818665 47.05956055 35.18743042 46.89939453 34.13574219 46.734375 C33.23861511 46.59225586 32.34148804 46.45013672 31.41717529 46.30371094 C28.74456435 45.91688878 28.74456435 45.91688878 25 46 C25.98057373 46.52787109 25.98057373 46.52787109 26.98095703 47.06640625 C30.02995334 48.70912204 33.07747582 50.35455488 36.125 52 C37.15238281 52.55300781 38.17976563 53.10601563 39.23828125 53.67578125 C46.61686263 57.66296498 53.91698189 61.77629235 61.18658447 65.95800781 C64.28504188 67.73838763 67.3889294 69.5092559 70.4921875 71.28125 C71.72268123 71.98433128 72.9531501 72.68745608 74.18359375 73.390625 C74.78929199 73.73673828 75.39499023 74.08285156 76.01904297 74.43945312 C81.01269531 77.29296875 86.00634766 80.14648438 91 83 C90.46516981 87.81866427 89.7806057 92.32832801 88.4375 97 C88.16808594 97.94875 87.89867188 98.8975 87.62109375 99.875 C87.41613281 100.57625 87.21117188 101.2775 87 102 C82.24654081 102.74168343 77.5853256 103.18903709 72.77954102 103.38891602 C71.75388283 103.43302612 71.75388283 103.43302612 70.70750427 103.47802734 C68.47309735 103.57330443 66.23852098 103.66364656 64.00390625 103.75390625 C62.44448072 103.81943165 60.88506822 103.88526792 59.32566833 103.95140076 C55.2405726 104.12381598 51.15531457 104.2920322 47.07000732 104.45935059 C42.89356972 104.63115351 38.71730083 104.80696019 34.54101562 104.98242188 C26.3608362 105.32551543 18.18048081 105.66416958 10 106 C16.92318971 108.54579606 23.84663638 111.0908923 30.77026367 113.63549805 C33.12644301 114.50154701 35.48256308 115.36775722 37.83862305 116.23413086 C41.22168729 117.47812438 44.604963 118.72154124 47.98828125 119.96484375 C49.04461258 120.35341049 50.10094391 120.74197723 51.18928528 121.14231873 C52.66047066 121.68276573 52.66047066 121.68276573 54.16137695 122.23413086 C55.45710381 122.71045204 55.45710381 122.71045204 56.77900696 123.19639587 C58.51040665 123.82285436 60.25323853 124.41774618 62 125 C62.20496094 124.37351562 62.40992187 123.74703125 62.62109375 123.1015625 C62.89050781 122.28429687 63.15992187 121.46703125 63.4375 120.625 C63.70433594 119.81289063 63.97117187 119.00078125 64.24609375 118.1640625 C65 116 65 116 66 114 C71.23880078 114.55145271 75.97350697 115.42922093 81 117 C80.40682896 122.55049708 79.42682948 127.76552017 77.96875 133.1484375 C77.77277222 133.8870401 77.57679443 134.6256427 77.37487793 135.3866272 C76.96381604 136.93175098 76.55025409 138.47621167 76.13427734 140.02001953 C75.49646231 142.38813493 74.8667591 144.75829757 74.23828125 147.12890625 C73.83640518 148.63554149 73.43407772 150.14205642 73.03125 151.6484375 C72.84268433 152.35672699 72.65411865 153.06501648 72.45983887 153.79476929 C71.1165746 158.76685079 71.1165746 158.76685079 70 161 C68.24871182 160.71617054 66.49899997 160.42260471 64.75 160.125 C63.28820312 159.88136719 63.28820312 159.88136719 61.796875 159.6328125 C59 159 59 159 55 157 C55.33 153.04 55.66 149.08 56 145 C54.68410889 144.57219238 53.36821777 144.14438477 52.01245117 143.70361328 C47.5357357 142.21011847 43.16625169 140.53143482 38.80078125 138.7421875 C38.05073822 138.43741989 37.30069519 138.13265228 36.52792358 137.81864929 C34.12167379 136.8401305 31.71706771 135.85764406 29.3125 134.875 C27.6554498 134.20020616 25.99830409 133.52564681 24.34106445 132.85131836 C19.55919855 130.90457239 14.77943831 128.95269653 10 127 C8.70933101 126.47309282 7.41864243 125.94623361 6.12792969 125.41943359 C0.08307082 122.9516726 -5.95983324 120.47922306 -12 118 C-13.98 121.63 -15.96 125.26 -18 129 C-28.828125 127.1953125 -28.828125 127.1953125 -33 125 C-31.9371336 120.69825325 -30.87087279 116.39736488 -29.80175781 112.09716797 C-29.44019726 110.64100684 -29.07948881 109.18463381 -28.71972656 107.72802734 C-28.19572844 105.60715226 -27.66843516 103.48711674 -27.140625 101.3671875 C-26.82641602 100.09987793 -26.51220703 98.83256836 -26.18847656 97.52685547 C-24.55994478 91.32384884 -22.76184738 85.16646582 -21 79 C9.69 78.01 9.69 78.01 41 77 C28.82695606 70.04397489 16.67012855 63.10458219 4.375 56.375 C2.47789368 55.33585468 0.58110588 54.29614568 -1.31478882 53.25479126 C-2.9859548 52.33693298 -4.65822026 51.42107734 -6.33056641 50.50537109 C-9 49 -9 49 -12 47 C-10.40675136 38.3633735 -8.25872051 29.89921865 -6.05883789 21.40185547 C-5.4319366 18.978494 -4.81043619 16.55379022 -4.18945312 14.12890625 C-3.79198405 12.58585571 -3.39420892 11.04288397 -2.99609375 9.5 C-2.81066513 8.77611084 -2.62523651 8.05222168 -2.43418884 7.30639648 C-1.11520484 2.23040968 -1.11520484 2.23040968 0 0 Z " fill="#000000" transform="translate(33,513)"/>
<path d="M0 0 C9.39390237 6.64538585 12.44674175 16.55428237 14.53686523 27.41162109 C15.37111018 33.41482597 15.34270577 39.45302499 15.32421875 45.50390625 C15.32334259 46.20588135 15.32246643 46.90785645 15.32156372 47.63110352 C15.18333363 81.42238128 6.2706229 118.47991771 -15.05078125 145.37890625 C-16.25927734 146.91611328 -16.25927734 146.91611328 -17.4921875 148.484375 C-19.90819977 151.21760415 -22.16823088 153.15418176 -25.17578125 155.19140625 C-26.02398438 155.77535156 -26.8721875 156.35929688 -27.74609375 156.9609375 C-33.11207453 160.26237991 -38.94422514 160.04620463 -45.05078125 159.37890625 C-51.43300173 157.11390595 -55.80457109 152.17571011 -59.05078125 146.37890625 C-72.85845405 115.49332236 -63.36112803 74.074707 -52.00537109 43.77880859 C-45.17158207 26.59820857 -35.04715339 7.18582183 -18.05078125 -1.62109375 C-11.61736299 -3.62921274 -5.84133798 -3.29364244 0 0 Z " fill="#000000" transform="translate(659.05078125,440.62109375)"/>
<path d="M0 0 C1.43023826 6.19164401 2.85370153 12.38481727 4.27246094 18.57910156 C4.75592614 20.68623113 5.24094234 22.79300545 5.72753906 24.89941406 C6.42660865 27.92681339 7.12009428 30.95544556 7.8125 33.984375 C8.03123779 34.92617615 8.24997559 35.86797729 8.4753418 36.83831787 C8.67554932 37.71892883 8.87575684 38.59953979 9.08203125 39.50683594 C9.25968018 40.27960876 9.4373291 41.05238159 9.62036133 41.84857178 C10 44 10 44 10 48 C5.05 48.99 0.1 49.98 -5 51 C-5.99 48.03 -6.98 45.06 -8 42 C-17.24 43.98 -26.48 45.96 -36 48 C-33.77807439 50.22192561 -31.85357085 51.15082338 -29.01953125 52.49609375 C-28.01986328 52.97240234 -27.02019531 53.44871094 -25.99023438 53.93945312 C-24.94158203 54.43380859 -23.89292969 54.92816406 -22.8125 55.4375 C-21.78318359 55.92798828 -20.75386719 56.41847656 -19.69335938 56.92382812 C-14.50288976 59.38772177 -9.30264214 61.78744069 -4 64 C-3.67 61.69 -3.34 59.38 -3 57 C-1.0636296 56.49564306 0.87414146 55.99666126 2.8125 55.5 C3.89144531 55.2215625 4.97039062 54.943125 6.08203125 54.65625 C9 54 9 54 12 54 C13.31321155 59.45959421 14.61286479 64.9221732 15.90014648 70.38793945 C16.33980561 72.24624067 16.78313449 74.10367768 17.23022461 75.96020508 C17.87283349 78.63142796 18.50211008 81.30549731 19.12890625 83.98046875 C19.33093155 84.80773972 19.53295685 85.63501068 19.74110413 86.48735046 C20.70092248 90.64280975 21.33355345 93.81463695 20 98 C18.4176994 98.33820166 16.83410625 98.67035939 15.25 99 C13.92742187 99.2784375 13.92742187 99.2784375 12.578125 99.5625 C10 100 10 100 6 100 C5.32645501 98.56570999 4.66140299 97.12742943 4 95.6875 C3.62875 94.88699219 3.2575 94.08648438 2.875 93.26171875 C2 91 2 91 2 88 C1.34773438 87.76023437 0.69546875 87.52046875 0.0234375 87.2734375 C-3.90569245 85.61853264 -7.61786383 83.63493648 -11.375 81.625 C-12.10460938 81.23828125 -12.83421875 80.8515625 -13.5859375 80.453125 C-17.06810834 78.60011266 -20.48567343 76.70546797 -23.8515625 74.6484375 C-24.89054687 74.10445312 -25.92953125 73.56046875 -27 73 C-30.70484271 74.23494757 -31.44070606 75.59489945 -33.78515625 78.6796875 C-37.56364196 83.41714478 -41.57207035 87.67954995 -45.93359375 91.8828125 C-46.54248444 92.47342468 -47.15137512 93.06403687 -47.77871704 93.67254639 C-50.30148783 96.1144853 -52.82949003 98.55006809 -55.38061523 100.96240234 C-57.26862161 102.75320207 -59.1333743 104.56577265 -60.99609375 106.3828125 C-61.57000351 106.91431915 -62.14391327 107.44582581 -62.73521423 107.99343872 C-66.54950304 111.75759516 -67.81003072 114.80061335 -68.52333069 120.11740112 C-68.759282 121.04928757 -68.759282 121.04928757 -69 122 C-72.42676435 124.00591084 -75.83442651 124.10677409 -79.71484375 124.53125 C-80.9212854 124.66370117 -80.9212854 124.66370117 -82.15209961 124.79882812 C-82.76190674 124.86521484 -83.37171387 124.93160156 -84 125 C-85.03956188 120.7960673 -86.0533056 116.58631678 -87.0625 112.375 C-87.35705078 111.18519531 -87.65160156 109.99539063 -87.95507812 108.76953125 C-88.22900391 107.61582031 -88.50292969 106.46210937 -88.78515625 105.2734375 C-89.04176025 104.21560059 -89.29836426 103.15776367 -89.56274414 102.06787109 C-90.1461244 97.97476314 -89.96208545 94.52109534 -87.72265625 90.98046875 C-81.1225029 83.85230313 -73.93359618 77.53044041 -66.375 71.4375 C-61.59574419 67.57602446 -57.23196205 63.45022943 -53 59 C-58.32773871 55.09299161 -61.68826626 54.63037597 -68.19921875 55.50390625 C-72.17373531 56.20790012 -76.07974905 57.03600386 -80 58 C-80 62.29 -80 66.58 -80 71 C-84.95 71.99 -89.9 72.98 -95 74 C-97.25102055 67.24693835 -97.25102055 67.24693835 -98.05322266 63.72631836 C-98.32327621 62.54996071 -98.32327621 62.54996071 -98.5987854 61.34983826 C-98.78532684 60.52154007 -98.97186829 59.69324188 -99.1640625 58.83984375 C-99.36099701 57.97235001 -99.55793152 57.10485626 -99.76083374 56.21107483 C-100.1741836 54.38513648 -100.58590735 52.55882934 -100.99609375 50.73217773 C-101.62404138 47.94175982 -102.26098086 45.1534933 -102.8984375 42.36523438 C-103.30002895 40.58606151 -103.70108878 38.80676854 -104.1015625 37.02734375 C-104.2921524 36.19702133 -104.48274231 35.36669891 -104.67910767 34.51121521 C-105.5478004 30.60562283 -106.24704329 27.03046556 -106 23 C-100.92523206 21.73694665 -96.27203646 20.72963916 -91 21 C-90.01 23.97 -89.02 26.94 -88 30 C-63.98074967 24.75021385 -39.97373638 19.45415656 -16 14 C-15.67 10.37 -15.34 6.74 -15 3 C-13.0636296 2.49564306 -11.12585854 1.99666126 -9.1875 1.5 C-7.56908203 1.08234375 -7.56908203 1.08234375 -5.91796875 0.65625 C-3 0 -3 0 0 0 Z " fill="#000000" transform="translate(1178,548)"/>
<path d="M0 0 C7.58665959 6.83618068 12.40531924 15.19094175 13.41015625 25.37109375 C13.55568063 29.95128216 12.93027849 33.67092274 11.171875 37.95703125 C12.19369873 37.90522705 13.21552246 37.85342285 14.26831055 37.80004883 C18.39051984 37.96582408 20.88732499 38.79480336 24.62890625 40.46875 C25.82451172 40.97857422 27.02011719 41.48839844 28.25195312 42.01367188 C30.12037172 42.82450429 31.98340649 43.64409308 33.83911133 44.48364258 C42.66955827 48.5811424 42.66955827 48.5811424 52.05859375 47.7890625 C53.41597656 47.18449219 54.77335938 46.57992187 56.171875 45.95703125 C59.141875 49.25703125 62.111875 52.55703125 65.171875 55.95703125 C62.16190877 61.97696371 57.20244608 65.58784999 52.171875 69.95703125 C51.37652344 70.69695312 50.58117187 71.436875 49.76171875 72.19921875 C48.66537109 73.16214844 48.66537109 73.16214844 47.546875 74.14453125 C46.91523438 74.71558594 46.28359375 75.28664063 45.6328125 75.875 C41.04959011 77.89016286 36.45113372 76.78517475 31.85839844 75.11645508 C29.48528718 74.06921267 27.17308821 72.94197122 24.859375 71.76953125 C23.61933716 71.16431641 23.61933716 71.16431641 22.35424805 70.546875 C18.72741789 68.76937088 15.12799108 66.94517539 11.5546875 65.0625 C6.00917037 62.16274486 1.51935886 59.84162245 -4.828125 59.95703125 C-6.72770581 61.27021387 -6.72770581 61.27021387 -7.828125 62.95703125 C-8.488125 62.95703125 -9.148125 62.95703125 -9.828125 62.95703125 C-7.73008677 66.70543713 -5.36834746 69.74549402 -2.453125 72.89453125 C0.85921426 76.50946594 4.0730169 80.158431 7.171875 83.95703125 C7.77515625 83.57289063 8.3784375 83.18875 9 82.79296875 C9.79921875 82.31085938 10.5984375 81.82875 11.421875 81.33203125 C12.21078125 80.84476562 12.9996875 80.3575 13.8125 79.85546875 C16.171875 78.95703125 16.171875 78.95703125 18.234375 79.55078125 C20.48432066 81.18380632 22.13588231 82.95257843 23.921875 85.08203125 C24.53546875 85.80648437 25.1490625 86.5309375 25.78125 87.27734375 C26.24015625 87.83164062 26.6990625 88.3859375 27.171875 88.95703125 C25.86092005 91.91015064 24.5377722 93.78467734 22.08203125 95.875 C21.4679541 96.40262939 20.85387695 96.93025879 20.22119141 97.47387695 C19.56554199 98.02519287 18.90989258 98.57650879 18.234375 99.14453125 C17.56067871 99.71969482 16.88698242 100.2948584 16.19287109 100.88745117 C11.41408374 104.95299515 6.56771701 108.93106846 1.69140625 112.87890625 C-2.24727405 116.12755419 -6.04531759 119.52915392 -9.828125 122.95703125 C-13.60892893 121.69676327 -14.60107925 120.02156591 -17.015625 116.89453125 C-18.08876953 115.51587891 -18.08876953 115.51587891 -19.18359375 114.109375 C-19.72628906 113.39910156 -20.26898438 112.68882812 -20.828125 111.95703125 C-19.21429743 108.55490826 -17.24208734 105.85378606 -14.828125 102.95703125 C-18.90519873 97.17289006 -23.47289543 91.99613074 -28.265625 86.796875 C-31.42724511 83.29306735 -34.38100147 79.64847956 -37.34375 75.9765625 C-40.29425632 72.39049114 -43.33616524 68.89202763 -46.390625 65.39453125 C-51.36147357 59.69840643 -56.18172493 53.92295279 -60.828125 47.95703125 C-64.20275215 48.50426808 -65.910475 49.01193125 -68.828125 50.95703125 C-72.828125 50.95703125 -72.828125 50.95703125 -74.96875 48.83984375 C-75.66484375 47.92976563 -76.3609375 47.0196875 -77.078125 46.08203125 C-77.78453125 45.17710937 -78.4909375 44.2721875 -79.21875 43.33984375 C-80.828125 40.95703125 -80.828125 40.95703125 -80.828125 38.95703125 C-79.36121941 37.62431245 -77.82489999 36.36789256 -76.265625 35.14453125 C-71.52807134 31.34716221 -66.86324392 27.48550055 -62.265625 23.51953125 C-61.62044922 22.96386475 -60.97527344 22.40819824 -60.31054688 21.83569336 C-56.60810608 18.61206517 -53.14160922 15.27735667 -49.765625 11.70703125 C-36.77947357 -1.58263624 -17.03313029 -12.41244069 0 0 Z M-35.015625 20.70703125 C-35.87542969 21.2175 -36.73523438 21.72796875 -37.62109375 22.25390625 C-39.95231525 24.05286656 -40.63325526 25.33244623 -41.828125 27.95703125 C-31.4017943 40.02161583 -31.4017943 40.02161583 -20.828125 51.95703125 C-15.36640301 48.84128381 -11.64076859 45.75049357 -9.828125 39.51953125 C-9.828125 31.74047724 -13.82249716 27.43924662 -18.79296875 21.875 C-21.53487002 19.29098172 -23.50283785 18.1192242 -27.25390625 17.66015625 C-30.40886454 18.02400576 -32.31250846 19.05489951 -35.015625 20.70703125 Z " fill="#000000" transform="translate(253.828125,261.04296875)"/>
<path d="M0 0 C3.94049032 2.2455 7.43875802 4.82052194 11 7.625 C15.48867825 11.12944337 20.04500004 14.47951391 24.75 17.6875 C54.43455903 38.03549905 54.43455903 38.03549905 59 53 C60.11815544 62.1937225 57.93944148 67.67729194 52.875 75.125 C47.96771743 80.60254782 41.6867845 84.13863589 34.375 84.875 C32.91762296 84.94226356 31.45891524 84.99379185 30 85 C30.27714844 85.51949219 30.55429687 86.03898437 30.83984375 86.57421875 C34.44627394 93.51755944 36.61841266 100.42330097 34.3515625 108.234375 C30.78373007 117.07772035 24.61103845 123.86936647 16 128 C5.52759506 131.83988181 -5.09105353 129.5360955 -15 125 C-22.05839532 121.56772699 -27.75527697 116.8063313 -33.61206055 111.67260742 C-37.5198849 108.24764794 -41.49439855 104.96526003 -45.625 101.8125 C-47.19701172 100.61173828 -47.19701172 100.61173828 -48.80078125 99.38671875 C-51.01274708 97.73652202 -53.23076091 96.11587518 -55.48046875 94.51953125 C-56.31940674 93.91564575 -56.31940674 93.91564575 -57.17529297 93.29956055 C-58.71982865 92.19148402 -60.27560441 91.09912343 -61.83203125 90.0078125 C-62.54746094 89.34523438 -63.26289062 88.68265625 -64 88 C-64 83.2047363 -63.01007087 82.32445916 -60 78.75 C-59.2575 77.85796875 -58.515 76.9659375 -57.75 76.046875 C-57.1725 75.37140625 -56.595 74.6959375 -56 74 C-55.20335937 74.46792969 -55.20335937 74.46792969 -54.390625 74.9453125 C-53.68421875 75.33460938 -52.9778125 75.72390625 -52.25 76.125 C-51.20585938 76.71667969 -51.20585938 76.71667969 -50.140625 77.3203125 C-48.04810331 78.18634555 -48.04810331 78.18634555 -46.0625 77.54296875 C-42.9950707 75.2482063 -40.96029645 72.26967293 -38.75 69.1875 C-37.68069836 67.72972673 -36.61033036 66.27273522 -35.5390625 64.81640625 C-34.96833008 64.03668457 -34.39759766 63.25696289 -33.80957031 62.45361328 C-30.62911194 58.14120008 -27.37597641 53.88435935 -24.125 49.625 C-23.45694336 48.7484375 -22.78888672 47.871875 -22.10058594 46.96875 C-15.45912996 38.26681346 -8.74217123 29.62404146 -2 21 C-2.44472656 20.55269531 -2.88945313 20.10539062 -3.34765625 19.64453125 C-7.97399859 14.70203795 -7.97399859 14.70203795 -8.09765625 11.36328125 C-6.83029934 8.63463024 -5.3466719 6.51321849 -3.4375 4.1875 C-2.47650391 3.00220703 -2.47650391 3.00220703 -1.49609375 1.79296875 C-1.00238281 1.20128906 -0.50867188 0.60960937 0 0 Z M22 36 C17.81607915 40.77157617 13.85206079 45.6598497 10.0625 50.75 C9.30356445 51.73806641 9.30356445 51.73806641 8.52929688 52.74609375 C7.27060072 54.43923755 6.12493695 56.21518383 5 58 C6.60554053 62.8166216 10.66253008 64.66443927 15 67 C18.04451623 68.08353746 18.04451623 68.08353746 21 67 C26.55366157 63.33061646 31.52992644 58.26163648 34 52 C34.06927355 47.91286083 33.47892666 45.79207102 31.375 42.3125 C28.46143526 39.47560801 25.6042054 37.87141434 22 36 Z M-6 72 C-7.52690996 73.5937286 -7.52690996 73.5937286 -9.08203125 75.69140625 C-9.98598633 76.86219727 -9.98598633 76.86219727 -10.90820312 78.05664062 C-11.85083008 79.29704102 -11.85083008 79.29704102 -12.8125 80.5625 C-13.42931641 81.36236328 -14.04613281 82.16222656 -14.68164062 82.98632812 C-18.21907974 87.59138968 -21.65510149 92.25342973 -25 97 C-20.80335836 102.86928878 -15.67407176 105.50928202 -9 108 C-3.49951175 108.1774351 -0.16285341 106.54285397 4 103 C7.39390825 99.05467873 10.33814262 95.15009617 10.625 89.8125 C9.32739509 81.89711004 4.24276533 78.29322951 -1.7578125 73.5390625 C-3.82155684 71.81136031 -3.82155684 71.81136031 -6 72 Z " fill="#000000" transform="translate(929,222)"/>
<path d="M0 0 C1.41040039 1.87011719 1.41040039 1.87011719 2.84765625 4.296875 C3.37037109 5.1734375 3.89308594 6.05 4.43164062 6.953125 C4.96982422 7.87609375 5.50800781 8.7990625 6.0625 9.75 C6.60455078 10.6575 7.14660156 11.565 7.70507812 12.5 C10.12826882 16.59755856 12.31422926 20.53699508 14 25 C11.92426919 26.20284401 9.84116905 27.38705701 7.75 28.5625 C7.16347656 28.90474609 6.57695312 29.24699219 5.97265625 29.59960938 C1.62426843 32.01809474 1.62426843 32.01809474 -1.15625 31.9375 C-4.97611167 29.99519745 -7.86259037 26.87595883 -11 24 C-16.94 26.64 -22.88 29.28 -29 32 C-27.65543812 36.03368564 -26.62870926 38.96459131 -24.6171875 42.5234375 C-23.95009766 43.71259766 -23.95009766 43.71259766 -23.26953125 44.92578125 C-22.80933594 45.73402344 -22.34914063 46.54226562 -21.875 47.375 C-21.40707031 48.20644531 -20.93914062 49.03789062 -20.45703125 49.89453125 C-19.30929451 51.93234954 -18.15686718 53.96735569 -17 56 C-13.40577503 56 -12.00655764 54.85018932 -9 53 C-8.34 53 -7.68 53 -7 53 C-7.2165625 52.46890625 -7.433125 51.9378125 -7.65625 51.390625 C-7.9346875 50.68421875 -8.213125 49.9778125 -8.5 49.25 C-8.7784375 48.55390625 -9.056875 47.8578125 -9.34375 47.140625 C-10 45 -10 45 -10 41 C-7.92426919 39.79715599 -5.84116905 38.61294299 -3.75 37.4375 C-3.16347656 37.09525391 -2.57695312 36.75300781 -1.97265625 36.40039062 C2.42167236 33.95635393 2.42167236 33.95635393 5.05419922 34.1550293 C7.68584983 35.29783266 8.15306632 36.51252257 9.3671875 39.0859375 C9.77541748 39.92962891 10.18364746 40.77332031 10.60424805 41.64257812 C11.02359619 42.54427734 11.44294434 43.44597656 11.875 44.375 C12.75203279 46.20662741 13.63092846 48.03736403 14.51171875 49.8671875 C15.1466626 51.19508301 15.1466626 51.19508301 15.79443359 52.54980469 C17.71441745 56.4519833 19.89319611 60.18115581 22.13671875 63.90625 C23 66 23 66 23.0078125 68.07421875 C21.44444067 71.06159206 19.17267342 71.85781452 16.1875 73.3125 C15.12917969 73.84488281 14.07085937 74.37726563 12.98046875 74.92578125 C9.95491733 76.01624867 8.8669982 76.3409123 6 75 C2 70.66666667 2 70.66666667 2 68 C1.37351562 68.28875 0.74703125 68.5775 0.1015625 68.875 C-1.12433594 69.431875 -1.12433594 69.431875 -2.375 70 C-3.59316406 70.556875 -3.59316406 70.556875 -4.8359375 71.125 C-7 72 -7 72 -9 72 C-8.60619141 72.71655762 -8.21238281 73.43311523 -7.80664062 74.17138672 C-6.03342604 77.4035687 -4.26664022 80.63922031 -2.5 83.875 C-1.56994141 85.56689453 -1.56994141 85.56689453 -0.62109375 87.29296875 C-0.03457031 88.36933594 0.55195313 89.44570313 1.15625 90.5546875 C1.97319336 92.04718018 1.97319336 92.04718018 2.80664062 93.56982422 C4 96 4 96 4 98 C6.33360282 96.9043129 8.62848667 95.76780185 10.91015625 94.56640625 C14 93 14 93 17.55859375 91.58984375 C21.55644318 89.73760902 24.09980741 88.34569069 27 85 C28.60390934 78.49259327 27.79498529 71.58567699 27 65 C29.08108685 64.32635339 31.1649671 63.66133202 33.25 63 C34.41015625 62.62875 35.5703125 62.2575 36.765625 61.875 C40 61 40 61 44 61 C47.63 70.9 51.26 80.8 55 91 C52.28977507 93.71022493 50.3304038 95.07310718 47.01953125 96.85546875 C46.02840332 97.39131592 45.03727539 97.92716309 44.01611328 98.47924805 C42.9589209 99.04297119 41.90172852 99.60669434 40.8125 100.1875 C39.72694824 100.77120361 38.64139648 101.35490723 37.52294922 101.95629883 C30.98363123 105.45676869 24.40255728 108.84734553 17.74194336 112.10986328 C12.6940239 114.60141839 7.78211388 117.30531184 2.875 120.0625 C-2.69043898 123.18024565 -8.26405063 126.26974747 -13.9375 129.1875 C-15.03964844 129.75855469 -16.14179688 130.32960938 -17.27734375 130.91796875 C-20 132 -20 132 -23 131 C-24.60546875 128.05859375 -24.60546875 128.05859375 -26.1875 124.4375 C-26.71730469 123.23996094 -27.24710937 122.04242188 -27.79296875 120.80859375 C-28.19128906 119.88175781 -28.58960938 118.95492187 -29 118 C-26.36 116.02 -23.72 114.04 -21 112 C-30.49175318 92.75119619 -40.24224218 73.6032793 -50.80004883 54.91503906 C-51.22439209 54.15803711 -51.64873535 53.40103516 -52.0859375 52.62109375 C-52.4576709 51.9655249 -52.8294043 51.30995605 -53.21240234 50.63452148 C-54 49 -54 49 -54 47 C-57.63 47.99 -61.26 48.98 -65 50 C-68.05816086 45.3322808 -70.35547311 41.36392417 -72 36 C-57.45435826 27.98094116 -42.80910302 20.16003794 -28.11962891 12.40869141 C-27.42319275 12.0409259 -26.72675659 11.6731604 -26.00921631 11.29425049 C-24.63869691 10.57120851 -23.26749335 9.84946168 -21.89556885 9.12908936 C-18.63636539 7.41376619 -15.39714087 5.6731788 -12.18798828 3.86572266 C-11.29286278 3.36647026 -11.29286278 3.36647026 -10.37965393 2.85713196 C-8.7684073 1.95513182 -7.16338243 1.04204297 -5.55883789 0.12817383 C-3 -1 -3 -1 0 0 Z " fill="#000000" transform="translate(352,180)"/>
<path d="M0 0 C7.98708138 0.54347708 15.31087409 3.16664489 22.859375 5.65625 C24.29545692 6.12391941 25.73176056 6.5909085 27.16827393 7.05725098 C30.9301489 8.28029174 34.68922945 9.51169949 38.44769287 10.74517822 C43.02018888 12.24429166 47.59559579 13.73449093 52.17093277 15.22490692 C55.72882409 16.38390032 59.28613738 17.54456057 62.84173584 18.71057129 C64.12984116 19.13192027 65.41794739 19.55326645 66.70605469 19.97460938 C67.82776062 20.3424353 68.94946655 20.71026123 70.10516357 21.0892334 C72.39565332 21.80986187 74.66266283 22.45675535 77 23 C75.64440137 33.31873587 72.8738268 43.01723322 70 53 C64.39 51.35 58.78 49.7 53 48 C52.67 43.38 52.34 38.76 52 34 C46.06 31.69 40.12 29.38 34 27 C31.61123282 33.33621736 31.61123282 33.33621736 29.39453125 39.71875 C29.13349609 40.50507813 28.87246094 41.29140625 28.60351562 42.1015625 C28.34248047 42.89304688 28.08144531 43.68453125 27.8125 44.5 C27.53986328 45.32242188 27.26722656 46.14484375 26.98632812 46.9921875 C26.32282708 48.99433101 25.6612138 50.99709996 25 53 C29.81209901 55.29045014 29.81209901 55.29045014 35 56 C36.65 53.03 38.3 50.06 40 47 C45.61 48.65 51.22 50.3 57 52 C55.3830051 59.9980393 53.06956166 67.71894425 50.625 75.5 C50.33399414 76.46824707 50.33399414 76.46824707 50.03710938 77.45605469 C49.47062457 79.3402324 48.88020723 81.21716304 48.2890625 83.09375 C47.94568848 84.20427734 47.60231445 85.31480469 47.24853516 86.45898438 C46 89 46 89 44.07275391 89.93139648 C40.7231405 90.04226119 37.82162237 88.75806033 34.75 87.5625 C34.1003125 87.31951172 33.450625 87.07652344 32.78125 86.82617188 C31.18383183 86.22714006 29.59139406 85.61485679 28 85 C28.33 81.37 28.66 77.74 29 74 C26.03 73.01 23.06 72.02 20 71 C17.40412727 76.68285652 15.55986696 82.44467851 13.8125 88.4375 C13.53986328 89.35982422 13.26722656 90.28214844 12.98632812 91.23242188 C12.32041189 93.48719088 11.65840329 95.74302804 11 98 C14.74378961 99.06493586 18.49568787 100.09783455 22.25 101.125 C23.31347656 101.42792969 24.37695312 101.73085937 25.47265625 102.04296875 C27.00986328 102.45869141 27.00986328 102.45869141 28.578125 102.8828125 C29.52075195 103.14465332 30.46337891 103.40649414 31.43457031 103.67626953 C34.4396483 104.05547903 35.52198749 103.68188509 38 102 C39.99031921 99.99300214 41.88185759 97.98830546 43.75 95.875 C44.25660156 95.31167969 44.76320313 94.74835938 45.28515625 94.16796875 C46.52884532 92.78348469 47.76516305 91.39238512 49 90 C49.74765625 90.40992188 50.4953125 90.81984375 51.265625 91.2421875 C52.25046875 91.78101563 53.2353125 92.31984375 54.25 92.875 C55.22453125 93.40867187 56.1990625 93.94234375 57.203125 94.4921875 C59.45130408 95.70419466 61.7072805 96.87547567 64 98 C62.98970953 104.43811105 59.87814092 109.93558704 57.0625 115.75 C56.51142578 116.91144531 55.96035156 118.07289063 55.39257812 119.26953125 C54.86212891 120.37167969 54.33167969 121.47382813 53.78515625 122.609375 C53.29926025 123.61967773 52.81336426 124.62998047 52.31274414 125.67089844 C51 128 51 128 49 129 C46.85420682 128.46878831 44.73389587 127.8339974 42.62939453 127.1574707 C41.97538162 126.94946335 41.32136871 126.74145599 40.64753723 126.52714539 C38.47362922 125.83376 36.3032871 125.12983349 34.1328125 124.42578125 C32.61762232 123.9400621 31.10222806 123.45497913 29.5866394 122.97050476 C25.58106767 121.68808686 21.57845976 120.3966446 17.57635498 119.10345459 C13.54752066 117.80351026 9.51578216 116.51264116 5.484375 115.22070312 C-7.03015308 111.20609784 -19.54173534 107.18687876 -32 103 C-30.91948349 97.88847668 -29.76957843 92.9295399 -28 88 C-24.04 88.33 -20.08 88.66 -16 89 C-15.73880371 87.74026367 -15.47760742 86.48052734 -15.20849609 85.18261719 C-13.99117024 79.7153806 -12.35597796 74.41439366 -10.6640625 69.078125 C-10.34343842 68.05628113 -10.02281433 67.03443726 -9.69247437 65.98162842 C-8.67349072 62.73663691 -7.6493989 59.49328557 -6.625 56.25 C-5.94495997 54.08865256 -5.26526943 51.92719511 -4.5859375 49.765625 C-3.60309341 46.63857358 -2.61998195 43.51160976 -1.63531494 40.38513184 C0.60639547 33.2657875 2.82378065 26.13968023 5 19 C2.03 17.35 -0.94 15.7 -4 14 C-2.68 9.38 -1.36 4.76 0 0 Z " fill="#000000" transform="translate(741,142)"/>
<path d="M0 0 C0.69996094 0.49113281 1.39992188 0.98226563 2.12109375 1.48828125 C12.95989856 10.00297587 18.72583224 23.69190721 21 37 C22.17490976 49.01874899 18.9135647 59.89500459 11.4453125 69.375 C-1.39436353 83.1581666 -20.02717163 93.11740436 -38.8984375 94.16015625 C-54.60747434 94.58926296 -66.32435429 90.0917842 -77.7109375 79.375 C-88.38638093 68.298772 -92.46678385 54.07857125 -92.20703125 39.046875 C-91.74133085 26.69295756 -85.09686987 17.31083286 -76.35546875 8.94140625 C-54.80827799 -8.8180528 -24.1435642 -16.9690159 0 0 Z M-43.8125 23.75 C-44.68374512 24.15581299 -45.55499023 24.56162598 -46.45263672 24.97973633 C-52.593866 27.98142715 -57.72100112 31.6853083 -63 36 C-63.9075 36.639375 -64.815 37.27875 -65.75 37.9375 C-70.18974221 42.0072637 -73.26878469 46.41545806 -73.5625 52.5625 C-73.27652582 57.29333002 -71.75564248 60.17271878 -69 64 C-64.71544837 67.68525109 -60.58699041 68.70519098 -55 69 C-37.19152707 67.14698255 -14.86046883 57.99795992 -3 44 C0.09473137 39.51228049 2.48276645 35.26030407 2 29.6875 C0.66127089 24.7509364 -0.69861596 22.17124563 -4.5 18.75 C-17.47388188 12.26305906 -31.65893757 18.05948653 -43.8125 23.75 Z " fill="#000000" transform="translate(1128,444)"/>
<path d="M0 0 C3.45101437 2.62165769 6.59475896 5.3344544 9.5 8.5625 C10.18449219 9.24119141 10.18449219 9.24119141 10.8828125 9.93359375 C20.35587804 19.8778327 24.0282572 32.06830585 23.7734375 45.453125 C23.12169401 59.53336556 13.70765011 71.40943929 3.80078125 80.69921875 C-9.80701514 92.84337405 -26.15053434 99.47792383 -44.5 98.5625 C-57.42294761 97.00103913 -68.26712349 89.89802692 -76.59765625 80.09375 C-85.2119753 68.88708448 -89.4060598 57.63207015 -88.5 43.5625 C-86.08775081 27.65050763 -75.67655213 15.41960414 -63.453125 5.734375 C-44.59374203 -8.13575322 -20.68107119 -13.92930971 0 0 Z M-48.5 32.5625 C-49.12777344 33.04332031 -49.75554688 33.52414062 -50.40234375 34.01953125 C-57.612275 39.69265176 -65.15556451 48.91327641 -67.00390625 58.0546875 C-67.15043202 64.01340209 -65.95951768 67.33966003 -62.203125 71.96875 C-58.21803219 75.69791942 -54.55031678 76.00262886 -49.2734375 75.87109375 C-33.41255387 74.10629121 -17.89707116 61.0950611 -7.5 49.5625 C-7.5 48.9025 -7.5 48.2425 -7.5 47.5625 C-6.84 47.5625 -6.18 47.5625 -5.5 47.5625 C-3.93711967 45.41785214 -3.93711967 45.41785214 -2.4375 42.75 C-1.91027344 41.85667969 -1.38304687 40.96335937 -0.83984375 40.04296875 C1.8845682 34.99923234 2.38081816 30.18810276 1.5 24.5625 C-0.50737694 20.48712065 -3.03419325 17.48827269 -6.875 15.0625 C-23.11963181 11.96828442 -36.70821965 22.72604025 -48.5 32.5625 Z " fill="#000000" transform="translate(1055.5,334.4375)"/>
<path d="M0 0 C6.33509458 0.30319092 12.66754874 0.64611358 19 1 C20.77528076 1.09667969 20.77528076 1.09667969 22.58642578 1.1953125 C69.6499656 3.81298331 69.6499656 3.81298331 80.5625 15.3125 C87.3894855 24.61653334 87.09386288 36.11630354 85.56640625 47.125 C83.42619758 56.48342797 78.60696183 63.60501289 70.625 68.9375 C61.9030624 74.29977886 54.04310277 75.43615521 43.9375 75.1875 C42.88111328 75.17396484 41.82472656 75.16042969 40.73632812 75.14648438 C38.15700191 75.1114709 35.57878506 75.06236675 33 75 C31.35209433 78.29581133 31.33507166 81.99879691 30.9375 85.625 C30.628125 88.38875 30.31875 91.1525 30 94 C35.94 94.99 41.88 95.98 48 97 C48.07465488 102.5244609 48.01365935 107.55656946 47 113 C27.95403801 111.70658366 8.98362584 109.98904552 -10 108 C-10.02724921 106.5847444 -10.04650808 105.16933381 -10.0625 103.75390625 C-10.07410156 102.9657251 -10.08570313 102.17754395 -10.09765625 101.36547852 C-9.95823735 97.98840424 -9.08605916 95.19029879 -8 92 C-4.7 92 -1.4 92 2 92 C2.63695983 84.71427095 3.27175014 77.42835607 3.90394497 70.14221191 C4.19772037 66.75715298 4.4921788 63.37215666 4.78833008 59.98730469 C6.63648061 39.01141311 6.63648061 39.01141311 8 18 C5.03 17.01 2.06 16.02 -1 15 C-1.09036443 9.84922738 -0.78658774 5.10972353 0 0 Z M37 18 C35.09176188 31.62157211 34.02025203 45.28728783 33 59 C42.00307158 59.97026337 42.00307158 59.97026337 50.0625 56.6875 C55.66227937 50.72554584 57.2196258 43.1399082 57.4375 35.1875 C57.26314709 30.44060142 56.97722112 26.87038745 54 23 C48.9329894 18.31301519 43.59314488 18.23463149 37 18 Z " fill="#000000" transform="translate(613,125)"/>
<path d="M0 0 C3.99012371 0.55989303 6.5255052 1.75669768 9.8125 4.0625 C10.60269531 4.61035156 11.39289063 5.15820312 12.20703125 5.72265625 C12.79871094 6.14417969 13.39039063 6.56570313 14 7 C13.44661458 8.92057292 12.89322917 10.84114583 12.33984375 12.76171875 C11.65231351 17.28993514 13.11824561 20.61493708 15.58984375 24.3359375 C16.12230713 25.14595215 16.65477051 25.9559668 17.20336914 26.79052734 C17.77563232 27.64340332 18.34789551 28.4962793 18.9375 29.375 C19.52072021 30.25752441 20.10394043 31.14004883 20.70483398 32.04931641 C22.46222759 34.70473071 24.23019484 37.35284692 26 40 C26.98231389 41.47880608 27.96412686 42.95794509 28.9453125 44.4375 C33.01066992 50.58491119 33.01066992 50.58491119 37.16357422 56.67285156 C40 60.78883987 40 60.78883987 40 63 C40.65613281 63.23460937 41.31226563 63.46921875 41.98828125 63.7109375 C46.66959147 65.71461114 50.98200068 68.3445142 55.38085938 70.8984375 C58.9587189 73.17956757 58.9587189 73.17956757 63 74 C64.44074715 72.217871 65.80510649 70.37339724 67.125 68.5 C67.84945312 67.4790625 68.57390625 66.458125 69.3203125 65.40625 C69.87460938 64.6121875 70.42890625 63.818125 71 63 C74.99012371 63.55989303 77.5255052 64.75669768 80.8125 67.0625 C81.60269531 67.61035156 82.39289063 68.15820312 83.20703125 68.72265625 C83.79871094 69.14417969 84.39039063 69.56570313 85 70 C83.64694351 73.56904188 82.06310902 76.8542833 80.19921875 80.18359375 C79.63992676 81.18398682 79.08063477 82.18437988 78.50439453 83.21508789 C77.60503174 84.81018188 77.60503174 84.81018188 76.6875 86.4375 C76.07245605 87.53247803 75.45741211 88.62745605 74.82373047 89.75561523 C68.7085029 100.59809005 62.39221903 111.31898444 56 122 C52.19529921 120.8335158 48.95426001 119.55623932 45.625 117.375 C44.93664062 116.92898438 44.24828125 116.48296875 43.5390625 116.0234375 C43.03117187 115.68570313 42.52328125 115.34796875 42 115 C42.45636536 113.603522 42.91519488 112.2078492 43.375 110.8125 C43.63023437 110.03519531 43.88546875 109.25789063 44.1484375 108.45703125 C45.02206922 105.93632321 45.99120398 103.46935722 47 101 C31.50669204 87.99426874 17.23193226 87.62611945 -1.92138672 88.78125 C-5.78313243 89.00715395 -9.6352527 89.06894763 -13.50390625 89.09375 C-15.75262249 89.12365272 -18.00132237 89.15482304 -20.25 89.1875 C-21.27246826 89.19225342 -22.29493652 89.19700684 -23.34838867 89.2019043 C-29.17698314 89.32064098 -29.17698314 89.32064098 -33.859375 92.61328125 C-34.56578125 93.40089844 -35.2721875 94.18851562 -36 95 C-39.79101424 94.95872924 -42.580779 93.31865103 -45.8125 91.4375 C-46.60269531 90.98246094 -47.39289062 90.52742188 -48.20703125 90.05859375 C-49.09455078 89.53458984 -49.09455078 89.53458984 -50 89 C-48.19979068 83.96759668 -45.58376634 79.40993572 -43 74.75 C-42.51813232 73.87698242 -42.03626465 73.00396484 -41.53979492 72.10449219 C-36.84698801 63.6450399 -31.95947813 55.3052432 -27 47 C-23.2397015 47.58107632 -20.46964968 48.65199496 -17.1875 50.5625 C-16.39730469 51.01753906 -15.60710937 51.47257812 -14.79296875 51.94140625 C-14.20128906 52.29074219 -13.60960937 52.64007813 -13 53 C-13.66 55.97 -14.32 58.94 -15 62 C-4.11 62 6.78 62 18 62 C13.15373631 54.89478023 13.15373631 54.89478023 8.30712891 47.78979492 C7.40099854 46.46105347 7.40099854 46.46105347 6.4765625 45.10546875 C5.85861816 44.19949951 5.24067383 43.29353027 4.60400391 42.36010742 C3.39378561 40.57941028 2.19428262 38.79142392 1 37 C-2.06775511 38.42431487 -4.21040099 39.90780074 -7 42 C-10.96 39.69 -14.92 37.38 -19 35 C-17.64092429 31.60231072 -16.35154759 28.65014061 -14.609375 25.48828125 C-14.14958252 24.65200195 -13.68979004 23.81572266 -13.21606445 22.95410156 C-12.73226318 22.08237305 -12.24846191 21.21064453 -11.75 20.3125 C-11.25781982 19.42143555 -10.76563965 18.53037109 -10.25854492 17.61230469 C-6.96040467 11.66510602 -3.59941375 5.77121191 0 0 Z " fill="#000000" transform="translate(101,386)"/>
<path d="M0 0 C1.00871032 4.39388136 2.00544344 8.7903952 3 13.1875 C3.28617187 14.43337891 3.57234375 15.67925781 3.8671875 16.96289062 C4.27324219 18.7659668 4.27324219 18.7659668 4.6875 20.60546875 C4.93886719 21.71043701 5.19023437 22.81540527 5.44921875 23.95385742 C5.94988116 26.7228135 6.10950127 29.19631111 6 32 C-0.29175074 34.61167012 -6.27186329 35.90667779 -13 37 C-15.97 31.39 -18.94 25.78 -22 20 C-30.04389948 20 -33.57571408 20.71714272 -40 25 C-45.21314762 30.473805 -45.89943719 37.70373342 -46.0703125 45.00390625 C-45.37374825 61.3731661 -39.39754365 79.26602833 -28.0078125 91.21875 C-24.17097853 94.62263384 -20.81198448 95.7606813 -15.6875 96.4375 C-10.65129562 95.83998423 -6.17961598 95.00870315 -2 92 C-0.46222066 88.74632017 -0.29285968 85.55471056 0 82 C0.35238406 80.12061833 0.72652994 78.24515283 1.125 76.375 C1.29257812 75.53710938 1.46015625 74.69921875 1.6328125 73.8359375 C1.75398438 73.23007813 1.87515625 72.62421875 2 72 C4.26999825 71.49622232 6.54103003 70.99709981 8.8125 70.5 C10.07707031 70.2215625 11.34164062 69.943125 12.64453125 69.65625 C16 69 16 69 19 69 C19.84371205 72.70605005 20.6731088 76.41516381 21.5 80.125 C21.85771484 81.69507813 21.85771484 81.69507813 22.22265625 83.296875 C22.56103516 84.82441406 22.56103516 84.82441406 22.90625 86.3828125 C23.11572266 87.31496582 23.32519531 88.24711914 23.54101562 89.20751953 C24.03025569 92.18407693 24.07770757 94.98883181 24 98 C21.74891748 99.12554126 19.49709629 100.24931487 17.2421875 101.3671875 C14.87805436 102.55779913 12.53432479 103.76992444 10.1953125 105.0078125 C-5.39214164 113.17501066 -21.45835744 117.53960933 -39 113 C-51.89523532 108.86027758 -61.46085042 99.17691577 -67.6875 87.4375 C-75.48914272 71.39013099 -77.92472357 54.3220146 -72.3203125 37.21484375 C-66.17237575 22.24516343 -54.91043422 12.24139156 -40.3125 5.8125 C-27.46551628 0.99488111 -13.60779428 -0.04193688 0 0 Z " fill="#000000" transform="translate(483,140)"/>
<path d="M0 0 C1.06723961 3.46222615 1.10173486 6.64039266 1.0625 10.25 C1.05347656 11.32765625 1.04445313 12.4053125 1.03515625 13.515625 C1.02355469 14.33546875 1.01195312 15.1553125 1 16 C-2.87684087 17.19287411 -5.91621923 18 -10 18 C-9.93006836 18.60730957 -9.86013672 19.21461914 -9.78808594 19.84033203 C-7.05427297 43.85129707 -5.03658761 67.92190237 -3 92 C-1.82630859 92.07347656 -1.82630859 92.07347656 -0.62890625 92.1484375 C0.88896484 92.26058594 0.88896484 92.26058594 2.4375 92.375 C3.44683594 92.44460937 4.45617187 92.51421875 5.49609375 92.5859375 C6.32238281 92.72257812 7.14867187 92.85921875 8 93 C9.40741875 95.81483751 9.38449037 98.43243894 9.625 101.5625 C9.72039063 102.73941406 9.81578125 103.91632813 9.9140625 105.12890625 C9.94242188 106.07636719 9.97078125 107.02382812 10 108 C8.38911142 109.61088858 6.54299335 109.31507462 4.3125 109.49658203 C3.31476562 109.5798172 2.31703125 109.66305237 1.2890625 109.74880981 C-0.33902344 109.87701614 -0.33902344 109.87701614 -2 110.0078125 C-3.65902344 110.14242386 -3.65902344 110.14242386 -5.3515625 110.27975464 C-7.69512978 110.46857002 -10.03888747 110.65503423 -12.3828125 110.83935547 C-15.9850096 111.12381623 -19.58623501 111.41884262 -23.1875 111.71484375 C-25.45828222 111.89647349 -27.72911407 112.07748401 -30 112.2578125 C-31.08539062 112.34733185 -32.17078125 112.4368512 -33.2890625 112.52908325 C-34.28679688 112.6060141 -35.28453125 112.68294495 -36.3125 112.76220703 C-37.19550781 112.83247101 -38.07851563 112.90273499 -38.98828125 112.97512817 C-39.98408203 112.98743973 -39.98408203 112.98743973 -41 113 C-42.94090826 111.05909174 -42.39919435 107.52706098 -42.5625 104.9375 C-42.64628906 103.64714844 -42.73007812 102.35679687 -42.81640625 101.02734375 C-42.87699219 100.02832031 -42.93757812 99.02929688 -43 98 C-41.56445975 97.49440092 -40.1264798 96.9957251 -38.6875 96.5 C-37.88699219 96.2215625 -37.08648438 95.943125 -36.26171875 95.65625 C-34 95 -34 95 -31 95 C-31.33 94.01 -31.66 93.02 -32 92 C-32.25896233 89.8257564 -32.47336813 87.64611384 -32.66430664 85.46484375 C-32.72297409 84.80598175 -32.78164154 84.14711975 -32.84208679 83.46829224 C-33.03497967 81.29165676 -33.22264003 79.11460474 -33.41015625 76.9375 C-33.54296772 75.42437312 -33.67606389 73.9112712 -33.80943298 72.39819336 C-34.08815464 69.22756633 -34.36447632 66.05674268 -34.63891602 62.88574219 C-34.99084029 58.81994345 -35.34707779 54.75453793 -35.7049036 50.68925476 C-35.9797014 47.56500092 -36.25303785 44.44062074 -36.52584648 41.31619263 C-36.65676363 39.81704439 -36.78794355 38.31791908 -36.91938972 36.81881714 C-37.10265086 34.72437909 -37.28414457 32.62979566 -37.46508789 30.53515625 C-37.56866104 29.342854 -37.67223419 28.15055176 -37.77894592 26.92211914 C-38 24 -38 24 -38 21 C-41.96 20.67 -45.92 20.34 -50 20 C-50.33 15.05 -50.66 10.1 -51 5 C-41.20321537 3.50678564 -31.45257802 2.40357658 -21.58227539 1.56738281 C-19.27648214 1.37194718 -16.97123897 1.1707879 -14.66601562 0.96875 C-13.19013217 0.84082232 -11.71422168 0.71320608 -10.23828125 0.5859375 C-9.55397537 0.52659027 -8.86966949 0.46724304 -8.16462708 0.40609741 C-5.43072401 0.1754064 -2.74536006 0 0 0 Z " fill="#000000" transform="translate(572,126)"/>
<path d="M0 0 C8.15866006 5.92359857 13.38018704 12.91225394 15 23 C16.05869198 32.19847128 13.36005906 40.51348771 7.625 47.75 C1.09813937 54.59704624 -8.85864203 59.55455073 -18.28515625 60.23828125 C-31.72521619 60.50235688 -41.95893519 57.35463272 -52 48 C-58.95588632 38.8985849 -60.11706192 30.2259193 -59 19 C-56.32953482 9.89086383 -51.02416614 3.88991035 -43 -1 C-29.35621564 -7.79218873 -13.12524571 -8.43228022 0 0 Z M-42 17 C-45.15851962 20.769846 -45.47476883 24.02708517 -45.27734375 28.796875 C-44.55463919 34.53779569 -41.45003454 38.18590015 -37.07421875 41.671875 C-29.86912075 46.28530875 -22.22568142 46.69962818 -14 45 C-7.84854897 42.60776904 -2.82908134 39.08252489 0 33 C1.28505947 28.13513201 1.16054574 24.54726826 -0.8046875 19.98828125 C-4.72209244 13.47207499 -10.4447359 10.34205025 -17.60546875 8.41015625 C-27.06610853 6.78965515 -35.572538 10.0190621 -42 17 Z " fill="#000000" transform="translate(486,532)"/>
<path d="M0 0 C7.29134034 6.18361748 12.17123533 13.0198615 13.41015625 22.67578125 C13.76931508 31.71268078 11.5681359 38.94364287 5.84375 45.97265625 C-2.49292893 54.75277555 -11.80660115 58.74964842 -23.84375 59.16015625 C-35.36531853 58.87211704 -44.5914027 55.1581115 -52.68359375 46.9921875 C-59.47838451 39.46641681 -61.46476495 32.23244467 -61.375 22.24609375 C-60.4350408 14.09375533 -56.00637843 6.6572436 -49.9453125 1.18359375 C-35.45111863 -9.52950607 -14.82412106 -10.93010375 0 0 Z M-43.96875 15.72265625 C-46.88403854 20.14260984 -47.60339081 23.46420379 -46.96875 28.72265625 C-44.9193244 35.36073287 -40.96520934 39.36683956 -34.96875 42.72265625 C-28.26162462 45.69902886 -20.54203535 45.21866315 -13.6640625 42.96875 C-7.93161041 40.38373858 -4.79877996 36.80043392 -1.59375 31.41015625 C-0.34762896 26.05183578 -1.15106826 21.35801974 -3.59375 16.47265625 C-9.24477601 9.92936297 -15.14492495 7.1116744 -23.84375 6.41015625 C-31.94034813 6.67638868 -38.55425728 9.70655323 -43.96875 15.72265625 Z " fill="#000000" transform="translate(351.96875,596.27734375)"/>
<path d="M0 0 C5.18749779 1.04528481 9.79744547 3.99961832 14.39990234 6.50830078 C15.46015625 7.0696875 16.52041016 7.63107422 17.61279297 8.20947266 C38.72210062 19.46519733 38.72210062 19.46519733 40.21240234 22.44580078 C40.66188299 28.62615961 40.66188299 28.62615961 39.14990234 31.38330078 C36.10664697 33.05218276 33.64316665 32.69085537 30.21240234 32.44580078 C27.65324554 31.44339256 25.42068545 30.42938522 23.02490234 29.13330078 C22.35434814 28.78299805 21.68379395 28.43269531 20.99291992 28.07177734 C18.72436023 26.87831432 16.46903279 25.66165373 14.21240234 24.44580078 C12.41824277 23.49897535 10.62396788 22.55236839 8.82958984 21.60595703 C7.01873401 20.63769822 5.20882402 19.66766824 3.39990234 18.69580078 C2.53405518 18.2364917 1.66820801 17.77718262 0.77612305 17.30395508 C-0.44071167 16.63940308 -0.44071167 16.63940308 -1.68212891 15.96142578 C-2.40247314 15.57245117 -3.12281738 15.18347656 -3.86499023 14.78271484 C-6.10227826 13.22698288 -7.39122834 11.7843952 -8.78759766 9.44580078 C-8.66259766 5.82080078 -8.66259766 5.82080078 -7.78759766 2.44580078 C-4.89374584 0.51656624 -3.42746981 -0.10696798 0 0 Z " fill="#000000" transform="translate(814.78759765625,637.55419921875)"/>
<path d="M0 0 C2.50051259 1.01711223 4.75594977 2.05949262 7.12109375 3.32421875 C8.11557274 3.83913628 8.11557274 3.83913628 9.13014221 4.36445618 C10.52735609 5.09096465 11.92152032 5.82336503 13.31274414 6.5612793 C15.421086 7.6787998 17.53845738 8.77734003 19.65820312 9.87304688 C21.02140946 10.58483519 22.38405842 11.29769222 23.74609375 12.01171875 C24.36922958 12.33589279 24.99236542 12.66006683 25.63438416 12.99406433 C37.4608746 19.29276958 37.4608746 19.29276958 39.125 24.5625 C39 28 39 28 38.0625 30.4375 C34.93411944 32.80748527 31.73954926 32.48699473 28 32 C25.13483337 31.02931744 22.56541797 29.66378456 19.921875 28.203125 C18.82108612 27.61806183 18.82108612 27.61806183 17.69805908 27.0211792 C16.15779289 26.1983557 14.62174958 25.36758261 13.08984375 24.52929688 C10.75169811 23.25092843 8.40096968 21.99871077 6.046875 20.75 C4.54607132 19.9442034 3.04604322 19.13696027 1.546875 18.328125 C0.84890808 17.95504211 0.15094116 17.58195923 -0.56817627 17.1975708 C-4.21972951 15.18893 -7.32841508 13.28385798 -10 10 C-10.61195145 6.3282913 -10.48706506 4.71186432 -8.375 1.625 C-5.26220327 -0.50480829 -3.74087344 -0.3510099 0 0 Z " fill="#000000" transform="translate(657,741)"/>
<path d="M0 0 C3.45531127 1.2018474 3.9978786 1.90742098 5.875 5 C6.94653143 7.72318381 7.78095238 10.50321031 8.609375 13.30859375 C8.85165833 14.11232925 9.09394165 14.91606476 9.34356689 15.74415588 C9.85189579 17.43991928 10.35593725 19.13697306 10.85595703 20.83520508 C11.62255617 23.42923055 12.40999749 26.0162959 13.19921875 28.60351562 C13.69138155 30.25482815 14.18230883 31.90650953 14.671875 33.55859375 C15.02641754 34.71505653 15.02641754 34.71505653 15.38812256 35.8948822 C16.55760066 39.93423406 17.24659534 42.95946931 15.875 47 C14.75 48.8125 14.75 48.8125 12.875 50 C9.4375 50.5 9.4375 50.5 5.875 50 C2.16045508 46.30393102 0.70069757 42.25224735 -0.703125 37.3203125 C-0.91942566 36.58932343 -1.13572632 35.85833435 -1.35858154 35.10519409 C-1.81111344 33.56543183 -2.25789712 32.02396972 -2.69921875 30.48095703 C-3.37221638 28.13470445 -4.06745502 25.7959007 -4.765625 23.45703125 C-5.20447121 21.95351728 -5.64201468 20.44962232 -6.078125 18.9453125 C-6.28431458 18.25341827 -6.49050415 17.56152405 -6.70294189 16.84866333 C-7.93950555 12.46457376 -8.50032915 8.54823023 -8.125 4 C-5.45946825 0.86408029 -4.13747529 0 0 0 Z " fill="#000000" transform="translate(540.125,664)"/>
<path d="M0 0 C4.05374197 3.11214587 5.22169236 6.83042554 6.54296875 11.58203125 C6.75689774 12.31443527 6.97082672 13.04683929 7.1912384 13.80143738 C7.64003992 15.34706255 8.08260318 16.89451116 8.51928711 18.44360352 C9.18339938 20.7979628 9.8662519 23.14621794 10.55273438 25.49414062 C10.98809276 27.00228315 11.42237288 28.51073744 11.85546875 30.01953125 C12.05649704 30.71456253 12.25752533 31.40959381 12.46464539 32.12568665 C13.66278528 36.39591896 14.61818229 40.57673604 15 45 C13.5 47.4375 13.5 47.4375 11 49 C7.5 49.5625 7.5 49.5625 4 49 C0.2800002 45.28838653 -1.17619611 41.23263955 -2.578125 36.28515625 C-2.79442566 35.5517955 -3.01072632 34.81843475 -3.23358154 34.06285095 C-3.6860697 32.51887522 -4.1328551 30.97321792 -4.57421875 29.42602539 C-5.24811172 27.06910421 -5.94288522 24.71909871 -6.640625 22.36914062 C-7.07938016 20.86234408 -7.5169212 19.35519337 -7.953125 17.84765625 C-8.15931458 17.15060074 -8.36550415 16.45354523 -8.57794189 15.73536682 C-9.70820475 11.72769833 -10.35937295 8.16222695 -10 4 C-7.21921757 -0.06422047 -4.81255755 -0.80209293 0 0 Z " fill="#000000" transform="translate(430,797)"/>
<path d="M0 0 C3.9329809 3.03681145 5.10453299 6.34720118 6.61328125 10.99609375 C6.83195358 11.66665298 7.05062592 12.33721222 7.27592468 13.02809143 C7.73302015 14.44070324 8.18399034 15.85531017 8.62915039 17.27172852 C9.31102507 19.43282544 10.01825461 21.5844166 10.72851562 23.73632812 C11.17081609 25.11408822 11.61162238 26.49232906 12.05078125 27.87109375 C12.44950439 29.11818115 12.84822754 30.36526855 13.2590332 31.65014648 C13.99421232 34.97383434 14.0360568 36.79714983 13 40 C11.38517276 42.26075813 10.23899078 42.91195077 7.625 43.875 C4.09269333 44.04320508 2.79564209 43.14288025 0 41 C-1.4855957 38.0324707 -1.4855957 38.0324707 -2.67578125 34.42578125 C-2.89066696 33.78311813 -3.10555267 33.14045502 -3.32695007 32.47831726 C-3.7765113 31.12029793 -4.21724928 29.75932972 -4.6496582 28.39575195 C-5.30716056 26.32928138 -5.99572948 24.27525873 -6.68945312 22.22070312 C-8.85830089 15.60280617 -10.36554389 9.98713686 -10 3 C-7.83165681 -1.08158719 -4.19361486 -0.51500533 0 0 Z " fill="#000000" transform="translate(574,649)"/>
<path d="M0 0 C3.89635643 3.07253387 5.0967033 6.31179058 6.61328125 10.9609375 C6.83195358 11.62912506 7.05062592 12.29731262 7.27592468 12.98574829 C7.73306793 14.39414266 8.18403616 15.80455469 8.62915039 17.21679688 C9.31006226 19.36730096 10.01778157 21.50763082 10.72851562 23.6484375 C11.1709146 25.02290951 11.61172342 26.39789456 12.05078125 27.7734375 C12.44950439 29.01528809 12.84822754 30.25713867 13.2590332 31.53662109 C14.03271813 35.15292898 13.96156976 37.45163557 13 41 C11.375 42.9375 11.375 42.9375 9 44 C5.4375 43.9375 5.4375 43.9375 2 43 C-0.9473965 39.90763458 -2.00194535 36.50615207 -3.26171875 32.4765625 C-3.45723831 31.85276703 -3.65275787 31.22897156 -3.85420227 30.58627319 C-4.26393876 29.2713078 -4.66964377 27.95508017 -5.0715332 26.63769531 C-5.68454958 24.63464061 -6.31495301 22.63766055 -6.94726562 20.640625 C-7.34481078 19.35709891 -7.74132923 18.07325427 -8.13671875 16.7890625 C-8.49467529 15.63100098 -8.85263184 14.47293945 -9.22143555 13.27978516 C-9.99576346 10.01784688 -10.26702854 7.33651112 -10 4 C-7.21921757 -0.06422047 -4.81255755 -0.80209293 0 0 Z " fill="#000000" transform="translate(462,781)"/>
<path d="M0 0 C1.35254883 0.71736328 1.35254883 0.71736328 2.73242188 1.44921875 C11.10126656 6.04803288 11.10126656 6.04803288 12.8125 10.75 C12.22297741 14.09062802 11.71602362 16.00781989 9.0625 18.1875 C2.25312643 19.88984339 -4.09865381 15.59374779 -9.9375 12.5625 C-10.89527344 12.09263672 -11.85304688 11.62277344 -12.83984375 11.13867188 C-19.76056512 7.56117627 -19.76056512 7.56117627 -21.8671875 3.55859375 C-22.24772781 0.22190495 -21.93725134 -1.38677054 -20.1875 -4.25 C-13.87444528 -9.21025728 -5.83485592 -3.23642262 0 0 Z " fill="#000000" transform="translate(651.1875,777.25)"/>
<path d="M0 0 C2.56813123 1.11826593 4.99544193 2.44365565 7.4375 3.8125 C8.06720703 4.15603516 8.69691406 4.49957031 9.34570312 4.85351562 C10.60713121 5.54451374 11.86437788 6.24320349 13.1171875 6.94970703 C14.39759557 7.66395956 15.69001082 8.35701295 16.9921875 9.03076172 C21.87774751 11.61965894 21.87774751 11.61965894 23.125 15.5 C23 19 23 19 21.9375 21.375 C19.23443741 23.64208475 17.52897578 23.82007539 14 24 C11.20144221 23.10672594 8.70074741 21.77521397 6.125 20.375 C5.06817017 19.82283813 5.06817017 19.82283813 3.98999023 19.25952148 C-8.15495175 12.84504825 -8.15495175 12.84504825 -11 10 C-11.375 6.6875 -11.375 6.6875 -11 3 C-7.38413086 -1.25396369 -5.21138047 -1.3198859 0 0 Z " fill="#000000" transform="translate(800,669)"/>
</svg>
